<svg width="152" height="152" viewBox="0 0 152 152" fill="none" xmlns="http://www.w3.org/2000/svg">
<mask id="path-1-inside-1_411_6" fill="white">
<rect width="152" height="152" rx="1"/>
</mask>
<rect width="152" height="152" rx="1" fill="#F4F6FC" stroke="#26619C" stroke-width="4" mask="url(#path-1-inside-1_411_6)"/>
<path d="M106.625 31.875H89.3333C89.3333 24.2221 83.1299 18 75.5 18C67.8701 18 61.6667 24.2221 61.6667 31.875H44.375C38.6471 31.875 34 36.5361 34 42.2812V118.594C34 124.339 38.6471 129 44.375 129H106.625C112.353 129 117 124.339 117 118.594V42.2812C117 36.5361 112.353 31.875 106.625 31.875ZM54.75 109.922C51.8753 109.922 49.5625 107.602 49.5625 104.719C49.5625 101.835 51.8753 99.5156 54.75 99.5156C57.6247 99.5156 59.9375 101.835 59.9375 104.719C59.9375 107.602 57.6247 109.922 54.75 109.922ZM54.75 89.1094C51.8753 89.1094 49.5625 86.7896 49.5625 83.9062C49.5625 81.0229 51.8753 78.7031 54.75 78.7031C57.6247 78.7031 59.9375 81.0229 59.9375 83.9062C59.9375 86.7896 57.6247 89.1094 54.75 89.1094ZM54.75 68.2969C51.8753 68.2969 49.5625 65.9771 49.5625 63.0938C49.5625 60.2104 51.8753 57.8906 54.75 57.8906C57.6247 57.8906 59.9375 60.2104 59.9375 63.0938C59.9375 65.9771 57.6247 68.2969 54.75 68.2969ZM75.5 26.6719C78.3747 26.6719 80.6875 28.9916 80.6875 31.875C80.6875 34.7584 78.3747 37.0781 75.5 37.0781C72.6253 37.0781 70.3125 34.7584 70.3125 31.875C70.3125 28.9916 72.6253 26.6719 75.5 26.6719ZM103.167 106.453C103.167 107.407 102.389 108.188 101.437 108.188H70.3125C69.3615 108.188 68.5833 107.407 68.5833 106.453V102.984C68.5833 102.03 69.3615 101.25 70.3125 101.25H101.437C102.389 101.25 103.167 102.03 103.167 102.984V106.453ZM103.167 85.6406C103.167 86.5945 102.389 87.375 101.437 87.375H70.3125C69.3615 87.375 68.5833 86.5945 68.5833 85.6406V82.1719C68.5833 81.218 69.3615 80.4375 70.3125 80.4375H101.437C102.389 80.4375 103.167 81.218 103.167 82.1719V85.6406ZM103.167 64.8281C103.167 65.782 102.389 66.5625 101.437 66.5625H70.3125C69.3615 66.5625 68.5833 65.782 68.5833 64.8281V61.3594C68.5833 60.4055 69.3615 59.625 70.3125 59.625H101.437C102.389 59.625 103.167 60.4055 103.167 61.3594V64.8281Z" fill="#26619C"/>
</svg>
