<svg width="50" height="50" viewBox="0 0 100 100" fill="none" xmlns="http://www.w3.org/2000/svg">
<rect width="97.949" height="99.3459" rx="3.84615" fill="#26619C"/>
<path d="M28.617 58.2742C28.015 58.2742 27.4951 58.0553 27.0573 57.6175C26.6195 57.1796 26.4006 56.6597 26.4006 56.0577V44.6469C26.4006 44.0449 26.6195 43.525 27.0573 43.0872C27.4951 42.6494 28.015 42.4305 28.617 42.4305H41.6696V30.0346C41.6696 29.4326 41.8886 28.9127 42.3264 28.4749C42.7642 28.037 43.2841 27.8181 43.8861 27.8181H56.3641C56.9661 27.8181 57.486 28.037 57.9238 28.4749C58.3616 28.9127 58.5806 29.4326 58.5806 30.0346V42.4305H71.6332C72.2352 42.4305 72.7551 42.6494 73.1929 43.0872C73.6307 43.525 73.8496 44.0449 73.8496 44.6469V56.0577C73.8496 56.6597 73.6307 57.1796 73.1929 57.6175C72.7551 58.0553 72.2352 58.2742 71.6332 58.2742H58.5806V71.0805C58.5806 71.6825 58.3616 72.2024 57.9238 72.6403C57.486 73.0781 56.9661 73.297 56.3641 73.297H43.8861C43.2841 73.297 42.7642 73.0781 42.3264 72.6403C41.8886 72.2024 41.6696 71.6825 41.6696 71.0805V58.2742H28.617Z" fill="#F4F6FC"/>
</svg>
