<svg width="201" height="180" viewBox="0 0 201 180" fill="none" xmlns="http://www.w3.org/2000/svg">
<path d="M55.8333 157.5C46.9 157.5 37.9667 149.625 33.5 146.25C11.1667 130.5 4.46667 124.875 0 121.5V168.75C0 174.962 5.00057 180 11.1667 180H100.5C106.666 180 111.667 174.962 111.667 168.75V121.5C107.2 124.875 100.5 130.5 78.1667 146.25C73.7 149.625 64.7667 157.5 55.8333 157.5ZM100.5 90H11.1667C5.00057 90 0 95.0379 0 101.25V106.875C8.93333 113.625 7.81666 113.625 40.2 137.25C43.55 139.5 50.25 146.25 55.8333 146.25C61.4167 146.25 68.1167 139.5 71.4667 138.375C103.85 114.75 102.733 114.75 111.667 108V101.25C111.667 95.0379 106.666 90 100.5 90ZM189.833 56.25H78.1667C72.0006 56.25 67 61.2879 67 67.5V78.75H100.5C112.089 78.75 121.643 87.6867 122.732 99.0773L122.833 99V146.25H189.833C195.999 146.25 201 141.212 201 135V67.5C201 61.2879 195.999 56.25 189.833 56.25ZM178.667 101.25H156.333V78.75H178.667V101.25ZM55.8333 67.5C55.8333 55.0934 65.8519 45 78.1667 45H156.333V11.25C156.333 5.03789 151.333 0 145.167 0H33.5C27.3339 0 22.3333 5.03789 22.3333 11.25V78.75H55.8333V67.5Z" fill="#AB3472"/>
</svg>
