<svg width="1512" height="200" viewBox="0 0 1512 200" fill="none" xmlns="http://www.w3.org/2000/svg">
<path d="M893.982 124L897.141 115.41H898.869L901.98 124H900.352L899.502 121.574H896.496L895.641 124H893.982ZM896.895 120.391H899.098C898.395 118.137 898.033 116.973 898.014 116.898L896.895 120.391ZM905.924 126.678V117.561H907.242L907.406 118.463C907.617 118.123 907.896 117.861 908.244 117.678C908.596 117.49 908.986 117.396 909.416 117.396C909.943 117.396 910.406 117.543 910.805 117.836C911.207 118.129 911.512 118.529 911.719 119.037C911.926 119.541 912.029 120.111 912.029 120.748C912.029 121.744 911.787 122.557 911.303 123.186C910.822 123.811 910.17 124.123 909.346 124.123C908.939 124.123 908.57 124.043 908.238 123.883C907.91 123.719 907.635 123.498 907.412 123.221C907.443 123.783 907.459 124.1 907.459 124.17V126.602L905.924 126.678ZM909.018 122.951C909.475 122.951 909.834 122.76 910.096 122.377C910.361 121.994 910.494 121.447 910.494 120.736C910.494 120.014 910.361 119.471 910.096 119.107C909.83 118.744 909.461 118.562 908.988 118.562C907.973 118.562 907.459 119.254 907.447 120.637C907.447 121.434 907.578 122.02 907.84 122.395C908.105 122.766 908.498 122.951 909.018 122.951ZM913.289 124V117.561H914.578L914.777 118.545C915.199 117.869 915.811 117.531 916.611 117.531C916.779 117.531 916.916 117.539 917.021 117.555L916.998 118.838C916.842 118.814 916.68 118.803 916.512 118.803C915.945 118.803 915.521 118.953 915.24 119.254C914.963 119.555 914.824 119.973 914.824 120.508V124H913.289ZM920.707 122.957C921.227 122.957 921.617 122.768 921.879 122.389C922.141 122.01 922.271 121.467 922.271 120.76C922.271 120.045 922.141 119.5 921.879 119.125C921.617 118.75 921.223 118.562 920.695 118.562C920.176 118.562 919.783 118.752 919.518 119.131C919.256 119.506 919.125 120.051 919.125 120.766C919.125 121.469 919.258 122.01 919.523 122.389C919.789 122.768 920.184 122.957 920.707 122.957ZM920.666 124.123C919.713 124.123 918.963 123.814 918.416 123.197C917.869 122.58 917.596 121.768 917.596 120.76C917.596 119.721 917.869 118.902 918.416 118.305C918.963 117.703 919.734 117.402 920.73 117.402C921.691 117.402 922.443 117.709 922.986 118.322C923.533 118.932 923.807 119.744 923.807 120.76C923.807 121.787 923.531 122.605 922.98 123.215C922.43 123.82 921.658 124.123 920.666 124.123ZM925.061 126.678V117.561H926.379L926.543 118.463C926.754 118.123 927.033 117.861 927.381 117.678C927.732 117.49 928.123 117.396 928.553 117.396C929.08 117.396 929.543 117.543 929.941 117.836C930.344 118.129 930.648 118.529 930.855 119.037C931.062 119.541 931.166 120.111 931.166 120.748C931.166 121.744 930.924 122.557 930.439 123.186C929.959 123.811 929.307 124.123 928.482 124.123C928.076 124.123 927.707 124.043 927.375 123.883C927.047 123.719 926.771 123.498 926.549 123.221C926.58 123.783 926.596 124.1 926.596 124.17V126.602L925.061 126.678ZM928.154 122.951C928.611 122.951 928.971 122.76 929.232 122.377C929.498 121.994 929.631 121.447 929.631 120.736C929.631 120.014 929.498 119.471 929.232 119.107C928.967 118.744 928.598 118.562 928.125 118.562C927.109 118.562 926.596 119.254 926.584 120.637C926.584 121.434 926.715 122.02 926.977 122.395C927.242 122.766 927.635 122.951 928.154 122.951ZM935.227 122.957C935.746 122.957 936.137 122.768 936.398 122.389C936.66 122.01 936.791 121.467 936.791 120.76C936.791 120.045 936.66 119.5 936.398 119.125C936.137 118.75 935.742 118.562 935.215 118.562C934.695 118.562 934.303 118.752 934.037 119.131C933.775 119.506 933.645 120.051 933.645 120.766C933.645 121.469 933.777 122.01 934.043 122.389C934.309 122.768 934.703 122.957 935.227 122.957ZM935.186 124.123C934.232 124.123 933.482 123.814 932.936 123.197C932.389 122.58 932.115 121.768 932.115 120.76C932.115 119.721 932.389 118.902 932.936 118.305C933.482 117.703 934.254 117.402 935.25 117.402C936.211 117.402 936.963 117.709 937.506 118.322C938.053 118.932 938.326 119.744 938.326 120.76C938.326 121.787 938.051 122.605 937.5 123.215C936.949 123.82 936.178 124.123 935.186 124.123ZM941.637 124.117C940.688 124.117 939.928 123.955 939.357 123.631L939.516 122.477C939.773 122.617 940.102 122.744 940.5 122.857C940.898 122.967 941.262 123.021 941.59 123.021C941.93 123.021 942.193 122.959 942.381 122.834C942.572 122.705 942.67 122.518 942.674 122.271C942.674 122.049 942.584 121.873 942.404 121.744C942.229 121.615 941.891 121.455 941.391 121.264C941.219 121.201 941.107 121.16 941.057 121.141C940.463 120.91 940.035 120.654 939.773 120.373C939.512 120.088 939.381 119.703 939.381 119.219C939.381 118.633 939.592 118.184 940.014 117.871C940.439 117.559 941.031 117.402 941.789 117.402C942.609 117.402 943.33 117.557 943.951 117.865L943.57 118.926C942.957 118.641 942.373 118.498 941.818 118.498C941.51 118.498 941.268 118.551 941.092 118.656C940.92 118.758 940.834 118.914 940.834 119.125C940.834 119.324 940.918 119.48 941.086 119.594C941.254 119.703 941.582 119.848 942.07 120.027C942.086 120.031 942.137 120.049 942.223 120.08C942.309 120.111 942.375 120.137 942.422 120.156C943.012 120.371 943.445 120.629 943.723 120.93C944 121.227 944.139 121.615 944.139 122.096C944.135 122.74 943.916 123.238 943.482 123.59C943.049 123.941 942.434 124.117 941.637 124.117ZM898.67 139.123C897.416 139.123 896.422 138.729 895.688 137.939C894.953 137.15 894.586 136.061 894.586 134.67C894.586 133.35 894.969 132.291 895.734 131.494C896.504 130.693 897.51 130.293 898.752 130.293C899.756 130.293 900.605 130.525 901.301 130.99L900.803 132.191C900.135 131.781 899.463 131.576 898.787 131.576C897.998 131.576 897.373 131.861 896.912 132.432C896.455 132.998 896.227 133.76 896.227 134.717C896.227 135.709 896.447 136.477 896.889 137.02C897.334 137.562 897.967 137.834 898.787 137.834C899.506 137.834 900.219 137.654 900.926 137.295L901.137 138.537C900.48 138.928 899.658 139.123 898.67 139.123ZM905.215 137.957C905.734 137.957 906.125 137.768 906.387 137.389C906.648 137.01 906.779 136.467 906.779 135.76C906.779 135.045 906.648 134.5 906.387 134.125C906.125 133.75 905.73 133.562 905.203 133.562C904.684 133.562 904.291 133.752 904.025 134.131C903.764 134.506 903.633 135.051 903.633 135.766C903.633 136.469 903.766 137.01 904.031 137.389C904.297 137.768 904.691 137.957 905.215 137.957ZM905.174 139.123C904.221 139.123 903.471 138.814 902.924 138.197C902.377 137.58 902.104 136.768 902.104 135.76C902.104 134.721 902.377 133.902 902.924 133.305C903.471 132.703 904.242 132.402 905.238 132.402C906.199 132.402 906.951 132.709 907.494 133.322C908.041 133.932 908.314 134.744 908.314 135.76C908.314 136.787 908.039 137.605 907.488 138.215C906.938 138.82 906.166 139.123 905.174 139.123ZM909.568 139V132.561H910.805L910.975 133.375C911.631 132.727 912.359 132.402 913.16 132.402C913.91 132.402 914.471 132.619 914.842 133.053C915.217 133.482 915.404 134.107 915.404 134.928V139H913.863V135.115C913.859 134.596 913.775 134.207 913.611 133.949C913.447 133.691 913.152 133.562 912.727 133.562C912.395 133.562 912.09 133.648 911.812 133.82C911.539 133.988 911.34 134.201 911.215 134.459C911.141 134.764 911.104 135.232 911.104 135.865V139H909.568ZM919.488 139.088C919.051 139.088 918.686 139.037 918.393 138.936C918.104 138.83 917.877 138.666 917.713 138.443C917.549 138.221 917.432 137.959 917.361 137.658C917.295 137.354 917.262 136.979 917.262 136.533V133.492H916.207L916.266 132.66L917.367 132.561L917.859 130.814L918.797 130.809V132.561H920.396V133.492H918.797V136.562C918.797 137.051 918.867 137.398 919.008 137.605C919.148 137.812 919.408 137.916 919.787 137.916C920.01 137.916 920.248 137.896 920.502 137.857L920.543 138.959C920.535 138.959 920.486 138.969 920.396 138.988C920.311 139.004 920.227 139.018 920.145 139.029C920.066 139.045 919.965 139.059 919.84 139.07C919.715 139.082 919.598 139.088 919.488 139.088ZM923.314 139.123C922.717 139.123 922.232 138.959 921.861 138.631C921.494 138.299 921.311 137.822 921.311 137.201C921.311 136.533 921.529 136.039 921.967 135.719C922.404 135.395 923.064 135.189 923.947 135.104C924.068 135.088 924.199 135.072 924.34 135.057C924.48 135.041 924.639 135.025 924.814 135.01C924.99 134.994 925.129 134.98 925.23 134.969V134.629C925.23 134.238 925.141 133.955 924.961 133.779C924.781 133.6 924.508 133.51 924.141 133.51C923.617 133.51 922.971 133.656 922.201 133.949C922.197 133.938 922.133 133.76 922.008 133.416C921.883 133.072 921.818 132.896 921.814 132.889C922.572 132.564 923.393 132.402 924.275 132.402C925.143 132.402 925.773 132.592 926.168 132.971C926.562 133.346 926.76 133.955 926.76 134.799V139H925.623C925.619 138.984 925.576 138.854 925.494 138.607C925.412 138.361 925.371 138.23 925.371 138.215C925.051 138.527 924.736 138.758 924.428 138.906C924.123 139.051 923.752 139.123 923.314 139.123ZM923.73 138.033C924.086 138.033 924.395 137.949 924.656 137.781C924.922 137.609 925.111 137.402 925.225 137.16V135.918C925.213 135.918 925.109 135.926 924.914 135.941C924.723 135.957 924.619 135.965 924.604 135.965C923.982 136.02 923.527 136.137 923.238 136.316C922.949 136.496 922.805 136.785 922.805 137.184C922.805 137.457 922.885 137.668 923.045 137.816C923.205 137.961 923.434 138.033 923.73 138.033ZM931.125 139.123C930.141 139.123 929.373 138.83 928.822 138.244C928.275 137.658 928.002 136.82 928.002 135.73C928.002 134.676 928.289 133.857 928.863 133.275C929.441 132.693 930.201 132.402 931.143 132.402C931.896 132.402 932.533 132.564 933.053 132.889L932.689 133.984C932.158 133.707 931.664 133.568 931.207 133.568C930.688 133.568 930.277 133.754 929.977 134.125C929.68 134.496 929.531 135.037 929.531 135.748C929.531 136.467 929.678 137.014 929.971 137.389C930.268 137.764 930.686 137.951 931.225 137.951C931.787 137.951 932.328 137.785 932.848 137.453L932.994 138.619C932.725 138.799 932.445 138.928 932.156 139.006C931.867 139.084 931.523 139.123 931.125 139.123ZM936.785 139.088C936.348 139.088 935.982 139.037 935.689 138.936C935.4 138.83 935.174 138.666 935.01 138.443C934.846 138.221 934.729 137.959 934.658 137.658C934.592 137.354 934.559 136.979 934.559 136.533V133.492H933.504L933.562 132.66L934.664 132.561L935.156 130.814L936.094 130.809V132.561H937.693V133.492H936.094V136.562C936.094 137.051 936.164 137.398 936.305 137.605C936.445 137.812 936.705 137.916 937.084 137.916C937.307 137.916 937.545 137.896 937.799 137.857L937.84 138.959C937.832 138.959 937.783 138.969 937.693 138.988C937.607 139.004 937.523 139.018 937.441 139.029C937.363 139.045 937.262 139.059 937.137 139.07C937.012 139.082 936.895 139.088 936.785 139.088ZM941.842 139.123C940.807 139.123 940 138.826 939.422 138.232C938.848 137.635 938.561 136.811 938.561 135.76C938.561 134.736 938.832 133.922 939.375 133.316C939.918 132.711 940.658 132.406 941.596 132.402C942.482 132.402 943.17 132.68 943.658 133.234C944.15 133.789 944.396 134.525 944.396 135.443C944.396 135.51 944.395 135.617 944.391 135.766C944.391 135.914 944.391 136.023 944.391 136.094H940.107C940.123 136.695 940.287 137.162 940.6 137.494C940.916 137.822 941.35 137.986 941.9 137.986C942.604 137.986 943.279 137.803 943.928 137.436L944.145 138.525C943.5 138.924 942.732 139.123 941.842 139.123ZM940.137 135.127H942.949C942.949 134.604 942.83 134.201 942.592 133.92C942.354 133.639 942.023 133.498 941.602 133.498C941.207 133.498 940.873 133.635 940.6 133.908C940.33 134.182 940.176 134.588 940.137 135.127ZM945.252 139V138.068L948.439 133.627H945.404V132.561H950.139V133.609L947.121 137.881H950.244V139H945.252ZM951.012 136.393V135.197H954.152V136.393H951.012ZM955.354 139V132.561H956.59L956.76 133.375C957.416 132.727 958.145 132.402 958.945 132.402C959.695 132.402 960.256 132.619 960.627 133.053C961.002 133.482 961.189 134.107 961.189 134.928V139H959.648V135.115C959.645 134.596 959.561 134.207 959.396 133.949C959.232 133.691 958.938 133.562 958.512 133.562C958.18 133.562 957.875 133.648 957.598 133.82C957.324 133.988 957.125 134.201 957 134.459C956.926 134.764 956.889 135.232 956.889 135.865V139H955.354ZM965.508 137.957C966.027 137.957 966.418 137.768 966.68 137.389C966.941 137.01 967.072 136.467 967.072 135.76C967.072 135.045 966.941 134.5 966.68 134.125C966.418 133.75 966.023 133.562 965.496 133.562C964.977 133.562 964.584 133.752 964.318 134.131C964.057 134.506 963.926 135.051 963.926 135.766C963.926 136.469 964.059 137.01 964.324 137.389C964.59 137.768 964.984 137.957 965.508 137.957ZM965.467 139.123C964.514 139.123 963.764 138.814 963.217 138.197C962.67 137.58 962.396 136.768 962.396 135.76C962.396 134.721 962.67 133.902 963.217 133.305C963.764 132.703 964.535 132.402 965.531 132.402C966.492 132.402 967.244 132.709 967.787 133.322C968.334 133.932 968.607 134.744 968.607 135.76C968.607 136.787 968.332 137.605 967.781 138.215C967.23 138.82 966.459 139.123 965.467 139.123ZM974.508 138.496C973.996 138.914 973.322 139.123 972.486 139.123C971.65 139.123 970.977 138.914 970.465 138.496C969.957 138.078 969.703 137.465 969.703 136.656V132.561H971.244V136.598C971.244 137.078 971.344 137.426 971.543 137.641C971.746 137.855 972.066 137.963 972.504 137.963C972.934 137.963 973.246 137.857 973.441 137.646C973.641 137.432 973.74 137.082 973.74 136.598V132.561H975.275V136.656C975.275 137.461 975.02 138.074 974.508 138.496ZM978.738 139.117C977.789 139.117 977.029 138.955 976.459 138.631L976.617 137.477C976.875 137.617 977.203 137.744 977.602 137.857C978 137.967 978.363 138.021 978.691 138.021C979.031 138.021 979.295 137.959 979.482 137.834C979.674 137.705 979.771 137.518 979.775 137.271C979.775 137.049 979.686 136.873 979.506 136.744C979.33 136.615 978.992 136.455 978.492 136.264C978.32 136.201 978.209 136.16 978.158 136.141C977.564 135.91 977.137 135.654 976.875 135.373C976.613 135.088 976.482 134.703 976.482 134.219C976.482 133.633 976.693 133.184 977.115 132.871C977.541 132.559 978.133 132.402 978.891 132.402C979.711 132.402 980.432 132.557 981.053 132.865L980.672 133.926C980.059 133.641 979.475 133.498 978.92 133.498C978.611 133.498 978.369 133.551 978.193 133.656C978.021 133.758 977.936 133.914 977.936 134.125C977.936 134.324 978.02 134.48 978.188 134.594C978.355 134.703 978.684 134.848 979.172 135.027C979.188 135.031 979.238 135.049 979.324 135.08C979.41 135.111 979.477 135.137 979.523 135.156C980.113 135.371 980.547 135.629 980.824 135.93C981.102 136.227 981.24 136.615 981.24 137.096C981.236 137.74 981.018 138.238 980.584 138.59C980.15 138.941 979.535 139.117 978.738 139.117Z" fill="white"/>
<path d="M1512 200L0 200V5.60748C0 5.60748 321.597 122.372 756 65.2126C1190.4 8.05348 1512 124.818 1512 124.818V200Z" fill="#26619C"/>
<path d="M1512 197.819L0 197.819V3.42676C0 3.42676 321.597 120.191 756 63.0319C1190.4 5.87276 1512 122.637 1512 122.637V197.819Z" fill="#26619C" fill-opacity="0.4"/>
<path d="M1512 194.393L0 194.393V0C0 0 321.597 116.764 756 59.6051C1190.4 2.446 1512 119.21 1512 119.21V194.393Z" fill="#26619C" fill-opacity="0.2"/>
<path d="M70.7832 151.205C68.6934 151.205 67.0365 150.548 65.8125 149.232C64.5885 147.917 63.9766 146.101 63.9766 143.783C63.9766 141.583 64.6146 139.818 65.8906 138.49C67.1732 137.156 68.8496 136.488 70.9199 136.488C72.5931 136.488 74.0091 136.876 75.168 137.65L74.3379 139.652C73.2246 138.969 72.1048 138.627 70.9785 138.627C69.6634 138.627 68.6217 139.102 67.8535 140.053C67.0918 140.997 66.7109 142.266 66.7109 143.861C66.7109 145.515 67.0788 146.794 67.8145 147.699C68.5566 148.604 69.6113 149.057 70.9785 149.057C72.1764 149.057 73.3646 148.757 74.543 148.158L74.8945 150.229C73.8008 150.88 72.4303 151.205 70.7832 151.205ZM81.6914 149.262C82.5573 149.262 83.2083 148.946 83.6445 148.314C84.0807 147.683 84.2988 146.778 84.2988 145.6C84.2988 144.408 84.0807 143.5 83.6445 142.875C83.2083 142.25 82.5508 141.938 81.6719 141.938C80.806 141.938 80.1517 142.253 79.709 142.885C79.2728 143.51 79.0547 144.418 79.0547 145.609C79.0547 146.781 79.276 147.683 79.7188 148.314C80.1615 148.946 80.819 149.262 81.6914 149.262ZM81.623 151.205C80.0345 151.205 78.7845 150.691 77.873 149.662C76.9616 148.633 76.5059 147.279 76.5059 145.6C76.5059 143.868 76.9616 142.504 77.873 141.508C78.7845 140.505 80.0703 140.004 81.7305 140.004C83.332 140.004 84.5853 140.515 85.4902 141.537C86.4017 142.553 86.8574 143.907 86.8574 145.6C86.8574 147.312 86.3984 148.676 85.4805 149.691C84.5625 150.701 83.2767 151.205 81.623 151.205ZM88.9473 151V140.268H91.0078L91.291 141.625C92.3848 140.544 93.599 140.004 94.9336 140.004C96.1836 140.004 97.1178 140.365 97.7363 141.088C98.3613 141.804 98.6738 142.846 98.6738 144.213V151H96.1055V144.525C96.099 143.66 95.959 143.012 95.6855 142.582C95.4121 142.152 94.9206 141.938 94.2109 141.938C93.6576 141.938 93.1497 142.081 92.6875 142.367C92.2318 142.647 91.8997 143.002 91.6914 143.432C91.5677 143.939 91.5059 144.721 91.5059 145.775V151H88.9473ZM105.48 151.146C104.751 151.146 104.143 151.062 103.654 150.893C103.173 150.717 102.795 150.443 102.521 150.072C102.248 149.701 102.053 149.265 101.936 148.764C101.825 148.256 101.77 147.631 101.77 146.889V141.82H100.012L100.109 140.434L101.945 140.268L102.766 137.357L104.328 137.348V140.268H106.994V141.82H104.328V146.938C104.328 147.751 104.445 148.331 104.68 148.676C104.914 149.021 105.347 149.193 105.979 149.193C106.35 149.193 106.747 149.161 107.17 149.096L107.238 150.932C107.225 150.932 107.144 150.948 106.994 150.98C106.851 151.007 106.711 151.029 106.574 151.049C106.444 151.075 106.275 151.098 106.066 151.117C105.858 151.137 105.663 151.146 105.48 151.146ZM111.857 151.205C110.861 151.205 110.054 150.932 109.436 150.385C108.824 149.831 108.518 149.037 108.518 148.002C108.518 146.889 108.882 146.065 109.611 145.531C110.34 144.991 111.441 144.649 112.912 144.506C113.114 144.48 113.332 144.454 113.566 144.428C113.801 144.402 114.064 144.376 114.357 144.35C114.65 144.324 114.882 144.301 115.051 144.281V143.715C115.051 143.064 114.901 142.592 114.602 142.299C114.302 141.999 113.846 141.85 113.234 141.85C112.362 141.85 111.285 142.094 110.002 142.582C109.995 142.562 109.888 142.266 109.68 141.693C109.471 141.12 109.364 140.827 109.357 140.814C110.62 140.274 111.988 140.004 113.459 140.004C114.904 140.004 115.956 140.32 116.613 140.951C117.271 141.576 117.6 142.592 117.6 143.998V151H115.705C115.699 150.974 115.627 150.756 115.49 150.346C115.354 149.936 115.285 149.717 115.285 149.691C114.751 150.212 114.227 150.596 113.713 150.844C113.205 151.085 112.587 151.205 111.857 151.205ZM112.551 149.389C113.143 149.389 113.658 149.249 114.094 148.969C114.536 148.682 114.852 148.337 115.041 147.934V145.863C115.021 145.863 114.849 145.876 114.523 145.902C114.204 145.928 114.032 145.941 114.006 145.941C112.971 146.033 112.212 146.228 111.73 146.527C111.249 146.827 111.008 147.309 111.008 147.973C111.008 148.428 111.141 148.78 111.408 149.027C111.675 149.268 112.056 149.389 112.551 149.389ZM124.875 151.205C123.234 151.205 121.955 150.717 121.037 149.74C120.126 148.764 119.67 147.367 119.67 145.551C119.67 143.793 120.148 142.429 121.105 141.459C122.069 140.489 123.335 140.004 124.904 140.004C126.161 140.004 127.222 140.274 128.088 140.814L127.482 142.641C126.597 142.178 125.773 141.947 125.012 141.947C124.146 141.947 123.462 142.257 122.961 142.875C122.466 143.493 122.219 144.395 122.219 145.58C122.219 146.778 122.463 147.689 122.951 148.314C123.446 148.939 124.143 149.252 125.041 149.252C125.979 149.252 126.88 148.975 127.746 148.422L127.99 150.365C127.541 150.665 127.076 150.88 126.594 151.01C126.112 151.14 125.539 151.205 124.875 151.205ZM134.309 151.146C133.579 151.146 132.971 151.062 132.482 150.893C132.001 150.717 131.623 150.443 131.35 150.072C131.076 149.701 130.881 149.265 130.764 148.764C130.653 148.256 130.598 147.631 130.598 146.889V141.82H128.84L128.938 140.434L130.773 140.268L131.594 137.357L133.156 137.348V140.268H135.822V141.82H133.156V146.938C133.156 147.751 133.273 148.331 133.508 148.676C133.742 149.021 134.175 149.193 134.807 149.193C135.178 149.193 135.575 149.161 135.998 149.096L136.066 150.932C136.053 150.932 135.972 150.948 135.822 150.98C135.679 151.007 135.539 151.029 135.402 151.049C135.272 151.075 135.103 151.098 134.895 151.117C134.686 151.137 134.491 151.146 134.309 151.146ZM142.736 151.205C141.011 151.205 139.667 150.71 138.703 149.721C137.746 148.725 137.268 147.351 137.268 145.6C137.268 143.894 137.72 142.536 138.625 141.527C139.53 140.518 140.764 140.01 142.326 140.004C143.804 140.004 144.95 140.466 145.764 141.391C146.584 142.315 146.994 143.542 146.994 145.072C146.994 145.183 146.991 145.362 146.984 145.609C146.984 145.857 146.984 146.039 146.984 146.156H139.846C139.872 147.159 140.145 147.937 140.666 148.49C141.193 149.037 141.916 149.311 142.834 149.311C144.006 149.311 145.132 149.005 146.213 148.393L146.574 150.209C145.5 150.873 144.221 151.205 142.736 151.205ZM139.895 144.545H144.582C144.582 143.673 144.383 143.002 143.986 142.533C143.589 142.064 143.039 141.83 142.336 141.83C141.678 141.83 141.122 142.058 140.666 142.514C140.217 142.969 139.96 143.646 139.895 144.545ZM148.42 151V149.447L153.732 142.045H148.674V140.268H156.564V142.016L151.535 149.135H156.74V151H148.42ZM158.02 146.654V144.662H163.254V146.654H158.02ZM165.256 151V140.268H167.316L167.6 141.625C168.693 140.544 169.908 140.004 171.242 140.004C172.492 140.004 173.426 140.365 174.045 141.088C174.67 141.804 174.982 142.846 174.982 144.213V151H172.414V144.525C172.408 143.66 172.268 143.012 171.994 142.582C171.721 142.152 171.229 141.938 170.52 141.938C169.966 141.938 169.458 142.081 168.996 142.367C168.54 142.647 168.208 143.002 168 143.432C167.876 143.939 167.814 144.721 167.814 145.775V151H165.256ZM182.18 149.262C183.046 149.262 183.697 148.946 184.133 148.314C184.569 147.683 184.787 146.778 184.787 145.6C184.787 144.408 184.569 143.5 184.133 142.875C183.697 142.25 183.039 141.938 182.16 141.938C181.294 141.938 180.64 142.253 180.197 142.885C179.761 143.51 179.543 144.418 179.543 145.609C179.543 146.781 179.764 147.683 180.207 148.314C180.65 148.946 181.307 149.262 182.18 149.262ZM182.111 151.205C180.523 151.205 179.273 150.691 178.361 149.662C177.45 148.633 176.994 147.279 176.994 145.6C176.994 143.868 177.45 142.504 178.361 141.508C179.273 140.505 180.559 140.004 182.219 140.004C183.82 140.004 185.074 140.515 185.979 141.537C186.89 142.553 187.346 143.907 187.346 145.6C187.346 147.312 186.887 148.676 185.969 149.691C185.051 150.701 183.765 151.205 182.111 151.205ZM197.18 150.16C196.327 150.857 195.204 151.205 193.811 151.205C192.417 151.205 191.294 150.857 190.441 150.16C189.595 149.464 189.172 148.441 189.172 147.094V140.268H191.74V146.996C191.74 147.797 191.906 148.376 192.238 148.734C192.577 149.092 193.111 149.271 193.84 149.271C194.556 149.271 195.077 149.096 195.402 148.744C195.734 148.386 195.9 147.803 195.9 146.996V140.268H198.459V147.094C198.459 148.435 198.033 149.457 197.18 150.16ZM204.23 151.195C202.648 151.195 201.382 150.925 200.432 150.385L200.695 148.461C201.125 148.695 201.672 148.907 202.336 149.096C203 149.278 203.605 149.369 204.152 149.369C204.719 149.369 205.158 149.265 205.471 149.057C205.79 148.842 205.952 148.529 205.959 148.119C205.959 147.748 205.809 147.455 205.51 147.24C205.217 147.025 204.654 146.758 203.82 146.439C203.534 146.335 203.348 146.267 203.264 146.234C202.274 145.85 201.561 145.424 201.125 144.955C200.689 144.48 200.471 143.839 200.471 143.031C200.471 142.055 200.822 141.306 201.525 140.785C202.235 140.264 203.221 140.004 204.484 140.004C205.852 140.004 207.053 140.261 208.088 140.775L207.453 142.543C206.431 142.068 205.458 141.83 204.533 141.83C204.019 141.83 203.615 141.918 203.322 142.094C203.036 142.263 202.893 142.523 202.893 142.875C202.893 143.207 203.033 143.467 203.312 143.656C203.592 143.839 204.139 144.079 204.953 144.379C204.979 144.385 205.064 144.415 205.207 144.467C205.35 144.519 205.461 144.561 205.539 144.594C206.522 144.952 207.245 145.382 207.707 145.883C208.169 146.378 208.4 147.025 208.4 147.826C208.394 148.9 208.029 149.73 207.307 150.316C206.584 150.902 205.559 151.195 204.23 151.195Z" fill="white"/>
<path d="M298.971 151L304.234 136.684H307.115L312.301 151H309.586L308.17 146.957H303.16L301.734 151H298.971ZM303.824 144.984H307.496C306.324 141.228 305.722 139.288 305.689 139.164L303.824 144.984ZM318.873 155.463V140.268H321.07L321.344 141.771C321.695 141.205 322.161 140.769 322.74 140.463C323.326 140.15 323.977 139.994 324.693 139.994C325.572 139.994 326.344 140.238 327.008 140.727C327.678 141.215 328.186 141.882 328.531 142.729C328.876 143.568 329.049 144.519 329.049 145.58C329.049 147.24 328.645 148.594 327.838 149.643C327.037 150.684 325.95 151.205 324.576 151.205C323.899 151.205 323.284 151.072 322.73 150.805C322.184 150.531 321.725 150.163 321.354 149.701C321.406 150.639 321.432 151.166 321.432 151.283V155.336L318.873 155.463ZM324.029 149.252C324.791 149.252 325.39 148.933 325.826 148.295C326.269 147.657 326.49 146.745 326.49 145.561C326.49 144.356 326.269 143.451 325.826 142.846C325.383 142.24 324.768 141.938 323.98 141.938C322.288 141.938 321.432 143.09 321.412 145.395C321.412 146.723 321.63 147.699 322.066 148.324C322.509 148.943 323.163 149.252 324.029 149.252ZM331.148 151V140.268H333.297L333.629 141.908C334.332 140.782 335.351 140.219 336.686 140.219C336.965 140.219 337.193 140.232 337.369 140.258L337.33 142.396C337.07 142.357 336.799 142.338 336.52 142.338C335.576 142.338 334.869 142.589 334.4 143.09C333.938 143.591 333.707 144.288 333.707 145.18V151H331.148ZM343.512 149.262C344.378 149.262 345.029 148.946 345.465 148.314C345.901 147.683 346.119 146.778 346.119 145.6C346.119 144.408 345.901 143.5 345.465 142.875C345.029 142.25 344.371 141.938 343.492 141.938C342.626 141.938 341.972 142.253 341.529 142.885C341.093 143.51 340.875 144.418 340.875 145.609C340.875 146.781 341.096 147.683 341.539 148.314C341.982 148.946 342.639 149.262 343.512 149.262ZM343.443 151.205C341.855 151.205 340.605 150.691 339.693 149.662C338.782 148.633 338.326 147.279 338.326 145.6C338.326 143.868 338.782 142.504 339.693 141.508C340.605 140.505 341.891 140.004 343.551 140.004C345.152 140.004 346.406 140.515 347.311 141.537C348.222 142.553 348.678 143.907 348.678 145.6C348.678 147.312 348.219 148.676 347.301 149.691C346.383 150.701 345.097 151.205 343.443 151.205ZM350.768 155.463V140.268H352.965L353.238 141.771C353.59 141.205 354.055 140.769 354.635 140.463C355.221 140.15 355.872 139.994 356.588 139.994C357.467 139.994 358.238 140.238 358.902 140.727C359.573 141.215 360.081 141.882 360.426 142.729C360.771 143.568 360.943 144.519 360.943 145.58C360.943 147.24 360.54 148.594 359.732 149.643C358.932 150.684 357.844 151.205 356.471 151.205C355.794 151.205 355.178 151.072 354.625 150.805C354.078 150.531 353.619 150.163 353.248 149.701C353.3 150.639 353.326 151.166 353.326 151.283V155.336L350.768 155.463ZM355.924 149.252C356.686 149.252 357.285 148.933 357.721 148.295C358.163 147.657 358.385 146.745 358.385 145.561C358.385 144.356 358.163 143.451 357.721 142.846C357.278 142.24 356.663 141.938 355.875 141.938C354.182 141.938 353.326 143.09 353.307 145.395C353.307 146.723 353.525 147.699 353.961 148.324C354.404 148.943 355.058 149.252 355.924 149.252ZM367.711 149.262C368.577 149.262 369.228 148.946 369.664 148.314C370.1 147.683 370.318 146.778 370.318 145.6C370.318 144.408 370.1 143.5 369.664 142.875C369.228 142.25 368.57 141.938 367.691 141.938C366.826 141.938 366.171 142.253 365.729 142.885C365.292 143.51 365.074 144.418 365.074 145.609C365.074 146.781 365.296 147.683 365.738 148.314C366.181 148.946 366.839 149.262 367.711 149.262ZM367.643 151.205C366.054 151.205 364.804 150.691 363.893 149.662C362.981 148.633 362.525 147.279 362.525 145.6C362.525 143.868 362.981 142.504 363.893 141.508C364.804 140.505 366.09 140.004 367.75 140.004C369.352 140.004 370.605 140.515 371.51 141.537C372.421 142.553 372.877 143.907 372.877 145.6C372.877 147.312 372.418 148.676 371.5 149.691C370.582 150.701 369.296 151.205 367.643 151.205ZM378.395 151.195C376.812 151.195 375.546 150.925 374.596 150.385L374.859 148.461C375.289 148.695 375.836 148.907 376.5 149.096C377.164 149.278 377.77 149.369 378.316 149.369C378.883 149.369 379.322 149.265 379.635 149.057C379.954 148.842 380.117 148.529 380.123 148.119C380.123 147.748 379.973 147.455 379.674 147.24C379.381 147.025 378.818 146.758 377.984 146.439C377.698 146.335 377.512 146.267 377.428 146.234C376.438 145.85 375.725 145.424 375.289 144.955C374.853 144.48 374.635 143.839 374.635 143.031C374.635 142.055 374.986 141.306 375.689 140.785C376.399 140.264 377.385 140.004 378.648 140.004C380.016 140.004 381.217 140.261 382.252 140.775L381.617 142.543C380.595 142.068 379.622 141.83 378.697 141.83C378.183 141.83 377.779 141.918 377.486 142.094C377.2 142.263 377.057 142.523 377.057 142.875C377.057 143.207 377.197 143.467 377.477 143.656C377.757 143.839 378.303 144.079 379.117 144.379C379.143 144.385 379.228 144.415 379.371 144.467C379.514 144.519 379.625 144.561 379.703 144.594C380.686 144.952 381.409 145.382 381.871 145.883C382.333 146.378 382.564 147.025 382.564 147.826C382.558 148.9 382.193 149.73 381.471 150.316C380.748 150.902 379.723 151.195 378.395 151.195ZM393.883 151.205C392.483 151.205 391.383 150.691 390.582 149.662C389.781 148.633 389.381 147.26 389.381 145.541C389.381 143.874 389.778 142.536 390.572 141.527C391.373 140.512 392.473 140.004 393.873 140.004C395.396 140.004 396.474 140.544 397.105 141.625C397.04 140.987 397.008 140.372 397.008 139.779V136.312L399.566 136.146V151H397.35L397.066 149.535C396.956 149.711 396.852 149.864 396.754 149.994C396.663 150.118 396.526 150.264 396.344 150.434C396.161 150.596 395.963 150.73 395.748 150.834C395.54 150.932 395.273 151.016 394.947 151.088C394.628 151.166 394.273 151.205 393.883 151.205ZM394.488 149.262C396.207 149.262 397.079 148.093 397.105 145.756C397.105 144.434 396.884 143.471 396.441 142.865C395.999 142.26 395.338 141.957 394.459 141.957C393.691 141.957 393.076 142.266 392.613 142.885C392.158 143.497 391.93 144.402 391.93 145.6C391.93 146.791 392.158 147.699 392.613 148.324C393.076 148.949 393.701 149.262 394.488 149.262ZM407.135 151.205C405.41 151.205 404.065 150.71 403.102 149.721C402.145 148.725 401.666 147.351 401.666 145.6C401.666 143.894 402.118 142.536 403.023 141.527C403.928 140.518 405.162 140.01 406.725 140.004C408.202 140.004 409.348 140.466 410.162 141.391C410.982 142.315 411.393 143.542 411.393 145.072C411.393 145.183 411.389 145.362 411.383 145.609C411.383 145.857 411.383 146.039 411.383 146.156H404.244C404.27 147.159 404.544 147.937 405.064 148.49C405.592 149.037 406.314 149.311 407.232 149.311C408.404 149.311 409.531 149.005 410.611 148.393L410.973 150.209C409.898 150.873 408.619 151.205 407.135 151.205ZM404.293 144.545H408.98C408.98 143.673 408.782 143.002 408.385 142.533C407.988 142.064 407.438 141.83 406.734 141.83C406.077 141.83 405.52 142.058 405.064 142.514C404.615 142.969 404.358 143.646 404.293 144.545ZM417.447 151L422.711 136.684H425.592L430.777 151H428.062L426.646 146.957H421.637L420.211 151H417.447ZM422.301 144.984H425.973C424.801 141.228 424.199 139.288 424.166 139.164L422.301 144.984ZM432.057 151V140.268H434.117L434.4 141.625C435.494 140.544 436.708 140.004 438.043 140.004C439.293 140.004 440.227 140.365 440.846 141.088C441.471 141.804 441.783 142.846 441.783 144.213V151H439.215V144.525C439.208 143.66 439.068 143.012 438.795 142.582C438.521 142.152 438.03 141.938 437.32 141.938C436.767 141.938 436.259 142.081 435.797 142.367C435.341 142.647 435.009 143.002 434.801 143.432C434.677 143.939 434.615 144.721 434.615 145.775V151H432.057ZM444.361 151V140.268H446.92V151H444.361ZM444.361 138.705V136.518H446.93V138.705H444.361ZM449.596 151V140.268H451.666L451.959 141.635C452.089 141.472 452.213 141.329 452.33 141.205C452.454 141.075 452.62 140.932 452.828 140.775C453.043 140.613 453.268 140.479 453.502 140.375C453.743 140.271 454.036 140.183 454.381 140.111C454.732 140.04 455.107 140.004 455.504 140.004C456.357 140.004 457.037 140.176 457.545 140.521C458.059 140.867 458.421 141.27 458.629 141.732C459.013 141.179 459.511 140.753 460.123 140.453C460.735 140.154 461.415 140.004 462.164 140.004C463.395 140.004 464.296 140.352 464.869 141.049C465.449 141.745 465.738 142.777 465.738 144.145V151H463.17V144.906C463.17 143.858 463.053 143.103 462.818 142.641C462.59 142.172 462.151 141.938 461.5 141.938C460.504 141.938 459.788 142.387 459.352 143.285C459.169 143.682 459.046 144.161 458.98 144.721V151H456.422V144.789C456.422 143.832 456.295 143.119 456.041 142.65C455.787 142.182 455.328 141.947 454.664 141.947C454.124 141.947 453.658 142.084 453.268 142.357C452.877 142.631 452.581 142.989 452.379 143.432C452.229 144.089 452.154 144.877 452.154 145.795V151H449.596ZM471.773 149.574V145.59H467.779V143.725H471.783V139.74H473.717V143.725H477.691V145.59H473.707V149.574H471.773Z" fill="white"/>
<path d="M540.996 151.205C539.355 151.205 538.076 150.717 537.158 149.74C536.247 148.764 535.791 147.367 535.791 145.551C535.791 143.793 536.27 142.429 537.227 141.459C538.19 140.489 539.456 140.004 541.025 140.004C542.282 140.004 543.343 140.274 544.209 140.814L543.604 142.641C542.718 142.178 541.895 141.947 541.133 141.947C540.267 141.947 539.583 142.257 539.082 142.875C538.587 143.493 538.34 144.395 538.34 145.58C538.34 146.778 538.584 147.689 539.072 148.314C539.567 148.939 540.264 149.252 541.162 149.252C542.1 149.252 543.001 148.975 543.867 148.422L544.111 150.365C543.662 150.665 543.197 150.88 542.715 151.01C542.233 151.14 541.66 151.205 540.996 151.205ZM550.742 149.262C551.608 149.262 552.259 148.946 552.695 148.314C553.132 147.683 553.35 146.778 553.35 145.6C553.35 144.408 553.132 143.5 552.695 142.875C552.259 142.25 551.602 141.938 550.723 141.938C549.857 141.938 549.202 142.253 548.76 142.885C548.324 143.51 548.105 144.418 548.105 145.609C548.105 146.781 548.327 147.683 548.77 148.314C549.212 148.946 549.87 149.262 550.742 149.262ZM550.674 151.205C549.085 151.205 547.835 150.691 546.924 149.662C546.012 148.633 545.557 147.279 545.557 145.6C545.557 143.868 546.012 142.504 546.924 141.508C547.835 140.505 549.121 140.004 550.781 140.004C552.383 140.004 553.636 140.515 554.541 141.537C555.452 142.553 555.908 143.907 555.908 145.6C555.908 147.312 555.449 148.676 554.531 149.691C553.613 150.701 552.327 151.205 550.674 151.205ZM557.998 151V140.268H560.059L560.342 141.625C561.436 140.544 562.65 140.004 563.984 140.004C565.234 140.004 566.169 140.365 566.787 141.088C567.412 141.804 567.725 142.846 567.725 144.213V151H565.156V144.525C565.15 143.66 565.01 143.012 564.736 142.582C564.463 142.152 563.971 141.938 563.262 141.938C562.708 141.938 562.201 142.081 561.738 142.367C561.283 142.647 560.951 143.002 560.742 143.432C560.618 143.939 560.557 144.721 560.557 145.775V151H557.998ZM574.531 151.146C573.802 151.146 573.193 151.062 572.705 150.893C572.223 150.717 571.846 150.443 571.572 150.072C571.299 149.701 571.104 149.265 570.986 148.764C570.876 148.256 570.82 147.631 570.82 146.889V141.82H569.062L569.16 140.434L570.996 140.268L571.816 137.357L573.379 137.348V140.268H576.045V141.82H573.379V146.938C573.379 147.751 573.496 148.331 573.73 148.676C573.965 149.021 574.398 149.193 575.029 149.193C575.4 149.193 575.798 149.161 576.221 149.096L576.289 150.932C576.276 150.932 576.195 150.948 576.045 150.98C575.902 151.007 575.762 151.029 575.625 151.049C575.495 151.075 575.326 151.098 575.117 151.117C574.909 151.137 574.714 151.146 574.531 151.146ZM580.908 151.205C579.912 151.205 579.105 150.932 578.486 150.385C577.874 149.831 577.568 149.037 577.568 148.002C577.568 146.889 577.933 146.065 578.662 145.531C579.391 144.991 580.492 144.649 581.963 144.506C582.165 144.48 582.383 144.454 582.617 144.428C582.852 144.402 583.115 144.376 583.408 144.35C583.701 144.324 583.932 144.301 584.102 144.281V143.715C584.102 143.064 583.952 142.592 583.652 142.299C583.353 141.999 582.897 141.85 582.285 141.85C581.413 141.85 580.335 142.094 579.053 142.582C579.046 142.562 578.939 142.266 578.73 141.693C578.522 141.12 578.415 140.827 578.408 140.814C579.671 140.274 581.038 140.004 582.51 140.004C583.955 140.004 585.007 140.32 585.664 140.951C586.322 141.576 586.65 142.592 586.65 143.998V151H584.756C584.749 150.974 584.678 150.756 584.541 150.346C584.404 149.936 584.336 149.717 584.336 149.691C583.802 150.212 583.278 150.596 582.764 150.844C582.256 151.085 581.637 151.205 580.908 151.205ZM581.602 149.389C582.194 149.389 582.708 149.249 583.145 148.969C583.587 148.682 583.903 148.337 584.092 147.934V145.863C584.072 145.863 583.9 145.876 583.574 145.902C583.255 145.928 583.083 145.941 583.057 145.941C582.021 146.033 581.263 146.228 580.781 146.527C580.299 146.827 580.059 147.309 580.059 147.973C580.059 148.428 580.192 148.78 580.459 149.027C580.726 149.268 581.107 149.389 581.602 149.389ZM593.926 151.205C592.285 151.205 591.006 150.717 590.088 149.74C589.176 148.764 588.721 147.367 588.721 145.551C588.721 143.793 589.199 142.429 590.156 141.459C591.12 140.489 592.386 140.004 593.955 140.004C595.212 140.004 596.273 140.274 597.139 140.814L596.533 142.641C595.648 142.178 594.824 141.947 594.062 141.947C593.197 141.947 592.513 142.257 592.012 142.875C591.517 143.493 591.27 144.395 591.27 145.58C591.27 146.778 591.514 147.689 592.002 148.314C592.497 148.939 593.193 149.252 594.092 149.252C595.029 149.252 595.931 148.975 596.797 148.422L597.041 150.365C596.592 150.665 596.126 150.88 595.645 151.01C595.163 151.14 594.59 151.205 593.926 151.205ZM603.359 151.146C602.63 151.146 602.021 151.062 601.533 150.893C601.051 150.717 600.674 150.443 600.4 150.072C600.127 149.701 599.932 149.265 599.814 148.764C599.704 148.256 599.648 147.631 599.648 146.889V141.82H597.891L597.988 140.434L599.824 140.268L600.645 137.357L602.207 137.348V140.268H604.873V141.82H602.207V146.938C602.207 147.751 602.324 148.331 602.559 148.676C602.793 149.021 603.226 149.193 603.857 149.193C604.229 149.193 604.626 149.161 605.049 149.096L605.117 150.932C605.104 150.932 605.023 150.948 604.873 150.98C604.73 151.007 604.59 151.029 604.453 151.049C604.323 151.075 604.154 151.098 603.945 151.117C603.737 151.137 603.542 151.146 603.359 151.146ZM614.326 153.002C612.757 153.002 611.364 152.686 610.146 152.055C608.936 151.423 607.988 150.518 607.305 149.34C606.628 148.155 606.289 146.788 606.289 145.238C606.289 144.125 606.491 143.08 606.895 142.104C607.305 141.12 607.865 140.281 608.574 139.584C609.284 138.881 610.137 138.331 611.133 137.934C612.135 137.53 613.206 137.328 614.346 137.328C615.7 137.328 616.924 137.611 618.018 138.178C619.118 138.744 619.984 139.548 620.615 140.59C621.253 141.632 621.572 142.816 621.572 144.145C621.572 144.906 621.452 145.622 621.211 146.293C620.97 146.964 620.651 147.53 620.254 147.992C619.857 148.448 619.398 148.809 618.877 149.076C618.356 149.343 617.822 149.477 617.275 149.477C616.735 149.477 616.302 149.304 615.977 148.959C615.651 148.614 615.482 148.074 615.469 147.338C615.221 147.924 614.87 148.402 614.414 148.773C613.965 149.145 613.473 149.33 612.939 149.33C612.041 149.33 611.338 149.044 610.83 148.471C610.322 147.898 610.068 147.139 610.068 146.195C610.068 145.264 610.26 144.398 610.645 143.598C611.029 142.79 611.576 142.143 612.285 141.654C612.995 141.166 613.789 140.922 614.668 140.922C615.566 140.922 616.595 141.13 617.754 141.547C617.669 141.99 617.529 142.663 617.334 143.568C617.145 144.467 616.995 145.215 616.885 145.814C616.781 146.413 616.729 146.879 616.729 147.211C616.729 147.543 616.787 147.771 616.904 147.895C617.028 148.018 617.223 148.08 617.49 148.08C617.939 148.08 618.363 147.882 618.76 147.484C619.163 147.087 619.479 146.586 619.707 145.98C619.935 145.368 620.049 144.747 620.049 144.115C620.049 143.048 619.801 142.104 619.307 141.283C618.818 140.463 618.141 139.835 617.275 139.398C616.41 138.962 615.43 138.744 614.336 138.744C613.457 138.744 612.646 138.891 611.904 139.184C611.169 139.477 610.56 139.854 610.078 140.316C609.596 140.779 609.186 141.306 608.848 141.898C608.509 142.491 608.265 143.08 608.115 143.666C607.965 144.245 607.891 144.809 607.891 145.355C607.891 146.345 608.06 147.24 608.398 148.041C608.737 148.842 609.199 149.499 609.785 150.014C610.378 150.528 611.058 150.922 611.826 151.195C612.601 151.469 613.428 151.605 614.307 151.605C616.214 151.605 617.848 151.104 619.209 150.102L619.746 151.156C618.242 152.387 616.436 153.002 614.326 153.002ZM612.969 147.953C614.219 147.953 615.12 146.534 615.674 143.695C615.752 143.279 615.833 142.787 615.918 142.221C615.56 142.149 615.192 142.113 614.814 142.113C614.268 142.113 613.757 142.312 613.281 142.709C612.812 143.106 612.448 143.607 612.188 144.213C611.927 144.818 611.797 145.434 611.797 146.059C611.797 146.605 611.891 147.058 612.08 147.416C612.275 147.774 612.572 147.953 612.969 147.953ZM626.357 151.205C625.361 151.205 624.554 150.932 623.936 150.385C623.324 149.831 623.018 149.037 623.018 148.002C623.018 146.889 623.382 146.065 624.111 145.531C624.84 144.991 625.941 144.649 627.412 144.506C627.614 144.48 627.832 144.454 628.066 144.428C628.301 144.402 628.564 144.376 628.857 144.35C629.15 144.324 629.382 144.301 629.551 144.281V143.715C629.551 143.064 629.401 142.592 629.102 142.299C628.802 141.999 628.346 141.85 627.734 141.85C626.862 141.85 625.785 142.094 624.502 142.582C624.495 142.562 624.388 142.266 624.18 141.693C623.971 141.12 623.864 140.827 623.857 140.814C625.12 140.274 626.488 140.004 627.959 140.004C629.404 140.004 630.456 140.32 631.113 140.951C631.771 141.576 632.1 142.592 632.1 143.998V151H630.205C630.199 150.974 630.127 150.756 629.99 150.346C629.854 149.936 629.785 149.717 629.785 149.691C629.251 150.212 628.727 150.596 628.213 150.844C627.705 151.085 627.087 151.205 626.357 151.205ZM627.051 149.389C627.643 149.389 628.158 149.249 628.594 148.969C629.036 148.682 629.352 148.337 629.541 147.934V145.863C629.521 145.863 629.349 145.876 629.023 145.902C628.704 145.928 628.532 145.941 628.506 145.941C627.471 146.033 626.712 146.228 626.23 146.527C625.749 146.827 625.508 147.309 625.508 147.973C625.508 148.428 625.641 148.78 625.908 149.027C626.175 149.268 626.556 149.389 627.051 149.389ZM634.678 151V140.268H636.738L637.021 141.625C638.115 140.544 639.329 140.004 640.664 140.004C641.914 140.004 642.848 140.365 643.467 141.088C644.092 141.804 644.404 142.846 644.404 144.213V151H641.836V144.525C641.829 143.66 641.689 143.012 641.416 142.582C641.143 142.152 640.651 141.938 639.941 141.938C639.388 141.938 638.88 142.081 638.418 142.367C637.962 142.647 637.63 143.002 637.422 143.432C637.298 143.939 637.236 144.721 637.236 145.775V151H634.678ZM646.982 151V140.268H649.541V151H646.982ZM646.982 138.705V136.518H649.551V138.705H646.982ZM652.217 151V140.268H654.287L654.58 141.635C654.71 141.472 654.834 141.329 654.951 141.205C655.075 141.075 655.241 140.932 655.449 140.775C655.664 140.613 655.889 140.479 656.123 140.375C656.364 140.271 656.657 140.183 657.002 140.111C657.354 140.04 657.728 140.004 658.125 140.004C658.978 140.004 659.658 140.176 660.166 140.521C660.68 140.867 661.042 141.27 661.25 141.732C661.634 141.179 662.132 140.753 662.744 140.453C663.356 140.154 664.036 140.004 664.785 140.004C666.016 140.004 666.917 140.352 667.49 141.049C668.07 141.745 668.359 142.777 668.359 144.145V151H665.791V144.906C665.791 143.858 665.674 143.103 665.439 142.641C665.212 142.172 664.772 141.938 664.121 141.938C663.125 141.938 662.409 142.387 661.973 143.285C661.79 143.682 661.667 144.161 661.602 144.721V151H659.043V144.789C659.043 143.832 658.916 143.119 658.662 142.65C658.408 142.182 657.949 141.947 657.285 141.947C656.745 141.947 656.279 142.084 655.889 142.357C655.498 142.631 655.202 142.989 655 143.432C654.85 144.089 654.775 144.877 654.775 145.795V151H652.217ZM670.889 155.463V140.268H673.086L673.359 141.771C673.711 141.205 674.176 140.769 674.756 140.463C675.342 140.15 675.993 139.994 676.709 139.994C677.588 139.994 678.359 140.238 679.023 140.727C679.694 141.215 680.202 141.882 680.547 142.729C680.892 143.568 681.064 144.519 681.064 145.58C681.064 147.24 680.661 148.594 679.854 149.643C679.053 150.684 677.965 151.205 676.592 151.205C675.915 151.205 675.299 151.072 674.746 150.805C674.199 150.531 673.74 150.163 673.369 149.701C673.421 150.639 673.447 151.166 673.447 151.283V155.336L670.889 155.463ZM676.045 149.252C676.807 149.252 677.406 148.933 677.842 148.295C678.285 147.657 678.506 146.745 678.506 145.561C678.506 144.356 678.285 143.451 677.842 142.846C677.399 142.24 676.784 141.938 675.996 141.938C674.303 141.938 673.447 143.09 673.428 145.395C673.428 146.723 673.646 147.699 674.082 148.324C674.525 148.943 675.179 149.252 676.045 149.252ZM686.914 151.146C686.178 151.146 685.566 151.062 685.078 150.893C684.596 150.717 684.215 150.44 683.936 150.062C683.656 149.685 683.46 149.236 683.35 148.715C683.239 148.194 683.184 147.546 683.184 146.771V136.312L685.742 136.146V146.723C685.742 147.686 685.856 148.34 686.084 148.686C686.312 149.024 686.755 149.193 687.412 149.193C687.738 149.193 688.151 149.158 688.652 149.086L688.721 150.912C688.714 150.912 688.633 150.928 688.477 150.961C688.327 150.993 688.18 151.02 688.037 151.039C687.9 151.065 687.725 151.088 687.51 151.107C687.295 151.133 687.096 151.146 686.914 151.146ZM697.734 150.16C696.882 150.857 695.758 151.205 694.365 151.205C692.972 151.205 691.849 150.857 690.996 150.16C690.15 149.464 689.727 148.441 689.727 147.094V140.268H692.295V146.996C692.295 147.797 692.461 148.376 692.793 148.734C693.132 149.092 693.665 149.271 694.395 149.271C695.111 149.271 695.632 149.096 695.957 148.744C696.289 148.386 696.455 147.803 696.455 146.996V140.268H699.014V147.094C699.014 148.435 698.587 149.457 697.734 150.16ZM704.785 151.195C703.203 151.195 701.937 150.925 700.986 150.385L701.25 148.461C701.68 148.695 702.227 148.907 702.891 149.096C703.555 149.278 704.16 149.369 704.707 149.369C705.273 149.369 705.713 149.265 706.025 149.057C706.344 148.842 706.507 148.529 706.514 148.119C706.514 147.748 706.364 147.455 706.064 147.24C705.771 147.025 705.208 146.758 704.375 146.439C704.089 146.335 703.903 146.267 703.818 146.234C702.829 145.85 702.116 145.424 701.68 144.955C701.243 144.48 701.025 143.839 701.025 143.031C701.025 142.055 701.377 141.306 702.08 140.785C702.79 140.264 703.776 140.004 705.039 140.004C706.406 140.004 707.607 140.261 708.643 140.775L708.008 142.543C706.986 142.068 706.012 141.83 705.088 141.83C704.574 141.83 704.17 141.918 703.877 142.094C703.59 142.263 703.447 142.523 703.447 142.875C703.447 143.207 703.587 143.467 703.867 143.656C704.147 143.839 704.694 144.079 705.508 144.379C705.534 144.385 705.618 144.415 705.762 144.467C705.905 144.519 706.016 144.561 706.094 144.594C707.077 144.952 707.799 145.382 708.262 145.883C708.724 146.378 708.955 147.025 708.955 147.826C708.949 148.9 708.584 149.73 707.861 150.316C707.139 150.902 706.113 151.195 704.785 151.195ZM712.08 151.176C711.657 151.176 711.299 151.029 711.006 150.736C710.713 150.443 710.566 150.095 710.566 149.691C710.566 149.281 710.71 148.926 710.996 148.627C711.289 148.327 711.65 148.178 712.08 148.178C712.497 148.178 712.848 148.327 713.135 148.627C713.421 148.926 713.564 149.281 713.564 149.691C713.564 150.095 713.421 150.443 713.135 150.736C712.848 151.029 712.497 151.176 712.08 151.176ZM720.312 151.205C718.672 151.205 717.393 150.717 716.475 149.74C715.563 148.764 715.107 147.367 715.107 145.551C715.107 143.793 715.586 142.429 716.543 141.459C717.507 140.489 718.773 140.004 720.342 140.004C721.598 140.004 722.66 140.274 723.525 140.814L722.92 142.641C722.035 142.178 721.211 141.947 720.449 141.947C719.583 141.947 718.9 142.257 718.398 142.875C717.904 143.493 717.656 144.395 717.656 145.58C717.656 146.778 717.9 147.689 718.389 148.314C718.883 148.939 719.58 149.252 720.479 149.252C721.416 149.252 722.318 148.975 723.184 148.422L723.428 150.365C722.979 150.665 722.513 150.88 722.031 151.01C721.549 151.14 720.977 151.205 720.312 151.205ZM730.059 149.262C730.924 149.262 731.576 148.946 732.012 148.314C732.448 147.683 732.666 146.778 732.666 145.6C732.666 144.408 732.448 143.5 732.012 142.875C731.576 142.25 730.918 141.938 730.039 141.938C729.173 141.938 728.519 142.253 728.076 142.885C727.64 143.51 727.422 144.418 727.422 145.609C727.422 146.781 727.643 147.683 728.086 148.314C728.529 148.946 729.186 149.262 730.059 149.262ZM729.99 151.205C728.402 151.205 727.152 150.691 726.24 149.662C725.329 148.633 724.873 147.279 724.873 145.6C724.873 143.868 725.329 142.504 726.24 141.508C727.152 140.505 728.438 140.004 730.098 140.004C731.699 140.004 732.952 140.515 733.857 141.537C734.769 142.553 735.225 143.907 735.225 145.6C735.225 147.312 734.766 148.676 733.848 149.691C732.93 150.701 731.644 151.205 729.99 151.205ZM737.314 151V140.268H739.385L739.678 141.635C739.808 141.472 739.932 141.329 740.049 141.205C740.173 141.075 740.339 140.932 740.547 140.775C740.762 140.613 740.986 140.479 741.221 140.375C741.462 140.271 741.755 140.183 742.1 140.111C742.451 140.04 742.826 140.004 743.223 140.004C744.076 140.004 744.756 140.176 745.264 140.521C745.778 140.867 746.139 141.27 746.348 141.732C746.732 141.179 747.23 140.753 747.842 140.453C748.454 140.154 749.134 140.004 749.883 140.004C751.113 140.004 752.015 140.352 752.588 141.049C753.167 141.745 753.457 142.777 753.457 144.145V151H750.889V144.906C750.889 143.858 750.771 143.103 750.537 142.641C750.309 142.172 749.87 141.938 749.219 141.938C748.223 141.938 747.507 142.387 747.07 143.285C746.888 143.682 746.764 144.161 746.699 144.721V151H744.141V144.789C744.141 143.832 744.014 143.119 743.76 142.65C743.506 142.182 743.047 141.947 742.383 141.947C741.842 141.947 741.377 142.084 740.986 142.357C740.596 142.631 740.299 142.989 740.098 143.432C739.948 144.089 739.873 144.877 739.873 145.795V151H737.314Z" fill="white"/>
</svg>
