<svg width="128" height="171" viewBox="0 0 128 171" fill="none" xmlns="http://www.w3.org/2000/svg">
<path d="M112 21.375H87.3333C86.2288 21.375 85.3431 20.4767 85.241 19.3769C84.2328 8.52118 75.0943 0 64 0C52.9057 0 43.7672 8.52118 42.759 19.3769C42.6569 20.4767 41.7712 21.375 40.6667 21.375H16C7.16667 21.375 0 28.5557 0 37.4062V154.969C0 163.819 7.16667 171 16 171H112C120.833 171 128 163.819 128 154.969V37.4062C128 28.5557 120.833 21.375 112 21.375ZM32 141.609C27.5667 141.609 24 138.036 24 133.594C24 129.152 27.5667 125.578 32 125.578C36.4333 125.578 40 129.152 40 133.594C40 138.036 36.4333 141.609 32 141.609ZM32 109.547C27.5667 109.547 24 105.973 24 101.531C24 97.0893 27.5667 93.5156 32 93.5156C36.4333 93.5156 40 97.0893 40 101.531C40 105.973 36.4333 109.547 32 109.547ZM32 77.4844C27.5667 77.4844 24 73.9107 24 69.4688C24 65.0268 27.5667 61.4531 32 61.4531C36.4333 61.4531 40 65.0268 40 69.4688C40 73.9107 36.4333 77.4844 32 77.4844ZM64 13.3594C68.4333 13.3594 72 16.933 72 21.375C72 25.817 68.4333 29.3906 64 29.3906C59.5667 29.3906 56 25.817 56 21.375C56 16.933 59.5667 13.3594 64 13.3594ZM106.667 136.266C106.667 137.735 105.467 138.938 104 138.938H56C54.5333 138.938 53.3333 137.735 53.3333 136.266V130.922C53.3333 129.452 54.5333 128.25 56 128.25H104C105.467 128.25 106.667 129.452 106.667 130.922V136.266ZM106.667 104.203C106.667 105.673 105.467 106.875 104 106.875H56C54.5333 106.875 53.3333 105.673 53.3333 104.203V98.8594C53.3333 97.3898 54.5333 96.1875 56 96.1875H104C105.467 96.1875 106.667 97.3898 106.667 98.8594V104.203ZM106.667 72.1406C106.667 73.6102 105.467 74.8125 104 74.8125H56C54.5333 74.8125 53.3333 73.6102 53.3333 72.1406V66.7969C53.3333 65.3273 54.5333 64.125 56 64.125H104C105.467 64.125 106.667 65.3273 106.667 66.7969V72.1406Z" fill="#AB3472"/>
</svg>
