<svg width="118" height="157" viewBox="0 0 118 157" fill="none" xmlns="http://www.w3.org/2000/svg">
<path d="M68.8333 41.7031V0H7.375C3.28802 0 0 3.28105 0 7.35938V149.641C0 153.719 3.28802 157 7.375 157H110.625C114.712 157 118 153.719 118 149.641V49.0625H76.2083C72.1521 49.0625 68.8333 45.7508 68.8333 41.7031ZM88.5 114.07C88.5 116.094 86.8406 117.75 84.8125 117.75H33.1875C31.1594 117.75 29.5 116.094 29.5 114.07V111.617C29.5 109.593 31.1594 107.938 33.1875 107.938H84.8125C86.8406 107.938 88.5 109.593 88.5 111.617V114.07ZM88.5 94.4453C88.5 96.4691 86.8406 98.125 84.8125 98.125H33.1875C31.1594 98.125 29.5 96.4691 29.5 94.4453V91.9922C29.5 89.9684 31.1594 88.3125 33.1875 88.3125H84.8125C86.8406 88.3125 88.5 89.9684 88.5 91.9922V94.4453ZM88.5 72.3672V74.8203C88.5 76.8441 86.8406 78.5 84.8125 78.5H33.1875C31.1594 78.5 29.5 76.8441 29.5 74.8203V72.3672C29.5 70.3434 31.1594 68.6875 33.1875 68.6875H84.8125C86.8406 68.6875 88.5 70.3434 88.5 72.3672ZM118 37.3795V39.25H78.6667V0H80.5411C82.5078 0 84.3823 0.766602 85.7651 2.14648L115.849 32.1973C117.232 33.5771 118 35.4477 118 37.3795Z" fill="#AB3472"/>
</svg>
