<svg width="223" height="84" viewBox="0 0 223 84" fill="none" xmlns="http://www.w3.org/2000/svg">
<path d="M47.2173 5.75645C47.8527 5.86351 48.2224 6.53467 47.9735 7.12893L18.7571 76.8702C18.6013 77.2419 18.2377 77.4838 17.8347 77.4838L8.99989 77.4839L1.48677 77.4839C0.7767 77.4839 0.292845 76.7645 0.560571 76.1068L15.6482 39.0443L30.264 3.68739C30.4421 3.25645 30.8944 3.00583 31.3543 3.08332L47.2173 5.75645Z" fill="#26619C"/>
<path d="M63.6959 60.2454C63.8506 60.8755 63.3736 61.4839 62.7247 61.4839L54.5 61.4839L45.3111 61.4839C44.8383 61.4839 44.4302 61.1528 44.3326 60.6902L42.2358 50.7476C42.2352 50.7449 42.235 50.7421 42.2353 50.7392C42.2355 50.7364 42.2353 50.7335 42.2347 50.7307L39.0709 36.1812C39.0287 35.9872 39.0452 35.7851 39.1183 35.6005L49.3998 9.64028C49.7584 8.73468 51.0684 8.82408 51.3007 9.77002L63.6959 60.2454Z" fill="#26619C"/>
<path d="M99.3985 30.9521C99.717 30.9521 99.9921 31.0679 100.224 31.2996C100.455 31.5313 100.571 31.8064 100.571 32.1249V60.1869C100.571 60.5054 100.455 60.7805 100.224 61.0122C99.9921 61.2439 99.717 61.3597 99.3985 61.3597H92.4047C91.7097 61.3597 91.1305 61.0557 90.6671 60.4475L81.1973 48.3713V60.1869C81.1973 60.5054 81.0815 60.7805 80.8498 61.0122C80.6181 61.2439 80.343 61.3597 80.0244 61.3597H71.9447C71.6261 61.3597 71.351 61.2439 71.1193 61.0122C70.8876 60.7805 70.7718 60.5054 70.7718 60.1869V32.1249C70.7718 31.8064 70.8876 31.5313 71.1193 31.2996C71.351 31.0679 71.6261 30.9521 71.9447 30.9521H78.9819C79.6769 30.9521 80.2416 31.2417 80.676 31.8209L90.1458 44.8962V32.1249C90.1458 31.8064 90.2617 31.5313 90.4934 31.2996C90.725 31.0679 91.0001 30.9521 91.3187 30.9521H99.3985ZM128.616 52.4546H136.479C136.797 52.4546 137.073 52.5705 137.304 52.8022C137.536 53.0338 137.652 53.309 137.652 53.6275V60.1869C137.652 60.5054 137.536 60.7805 137.304 61.0122C137.073 61.2439 136.797 61.3597 136.479 61.3597H108.938C108.62 61.3597 108.345 61.2439 108.113 61.0122C107.881 60.7805 107.765 60.5054 107.765 60.1869V53.6275C107.765 53.309 107.881 53.0338 108.113 52.8022C108.345 52.5705 108.62 52.4546 108.938 52.4546H116.888V39.8572H108.938C108.62 39.8572 108.345 39.7413 108.113 39.5097C107.881 39.278 107.765 39.0029 107.765 38.6843V32.1249C107.765 31.8064 107.881 31.5313 108.113 31.2996C108.345 31.0679 108.62 30.9521 108.938 30.9521H136.479C136.797 30.9521 137.073 31.0679 137.304 31.2996C137.536 31.5313 137.652 31.8064 137.652 32.1249V38.6843C137.652 39.0029 137.536 39.278 137.304 39.5097C137.073 39.7413 136.797 39.8572 136.479 39.8572H128.616V52.4546ZM165.306 32.1249C165.74 31.343 166.363 30.9521 167.174 30.9521H175.123C175.442 30.9521 175.717 31.0679 175.948 31.2996C176.18 31.5313 176.296 31.8064 176.296 32.1249V60.1869C176.296 60.5054 176.18 60.7805 175.948 61.0122C175.717 61.2439 175.442 61.3597 175.123 61.3597H167.26C166.942 61.3597 166.667 61.2439 166.435 61.0122C166.203 60.7805 166.088 60.5054 166.088 60.1869V46.7206L162.917 52.9759C162.83 53.1786 162.627 53.4103 162.308 53.6709C161.99 53.9316 161.584 54.0619 161.092 54.0619H158.138C157.646 54.0619 157.24 53.9316 156.922 53.6709C156.603 53.4103 156.401 53.1786 156.314 52.9759L153.143 46.7206V60.1869C153.143 60.5054 153.027 60.7805 152.795 61.0122C152.563 61.2439 152.288 61.3597 151.97 61.3597H144.107C143.789 61.3597 143.514 61.2439 143.282 61.0122C143.05 60.7805 142.934 60.5054 142.934 60.1869V32.1249C142.934 31.8064 143.05 31.5313 143.282 31.2996C143.514 31.0679 143.789 30.9521 144.107 30.9521H152.057C152.868 30.9521 153.49 31.343 153.925 32.1249L159.615 42.5504L165.306 32.1249ZM185.141 50.2827C184.822 50.2827 184.547 50.1668 184.315 49.9351C184.084 49.7035 183.968 49.4284 183.968 49.1098V43.0717C183.968 42.7531 184.084 42.478 184.315 42.2464C184.547 42.0147 184.822 41.8988 185.141 41.8988H192.047V35.3395C192.047 35.0209 192.163 34.7458 192.395 34.5141C192.627 34.2824 192.902 34.1666 193.22 34.1666H199.823C200.142 34.1666 200.417 34.2824 200.649 34.5141C200.88 34.7458 200.996 35.0209 200.996 35.3395V41.8988H207.903C208.221 41.8988 208.497 42.0147 208.728 42.2464C208.96 42.478 209.076 42.7531 209.076 43.0717V49.1098C209.076 49.4284 208.96 49.7035 208.728 49.9351C208.497 50.1668 208.221 50.2827 207.903 50.2827H200.996V57.0592C200.996 57.3778 200.88 57.6529 200.649 57.8846C200.417 58.1163 200.142 58.2321 199.823 58.2321H193.22C192.902 58.2321 192.627 58.1163 192.395 57.8846C192.163 57.6529 192.047 57.3778 192.047 57.0592V50.2827H185.141Z" fill="#26619C"/>
</svg>
