<svg width="26" height="26" viewBox="0 0 26 26" fill="none" xmlns="http://www.w3.org/2000/svg">
<rect width="25.4668" height="25.83" rx="1" fill="#AB3472"/>
<path d="M18.5714 7.8125H15.3571L15.1054 7.3377C15.052 7.23619 14.9699 7.15081 14.8681 7.09115C14.7664 7.03149 14.6491 6.99992 14.5295 7H11.4679C11.3485 6.99957 11.2314 7.03102 11.13 7.09074C11.0287 7.15047 10.9471 7.23605 10.8946 7.3377L10.6429 7.8125H7.42857C7.31491 7.8125 7.2059 7.85531 7.12553 7.93149C7.04515 8.00768 7 8.11101 7 8.21875V9.03125C7 9.139 7.04515 9.24233 7.12553 9.31852C7.2059 9.3947 7.31491 9.4375 7.42857 9.4375H18.5714C18.6851 9.4375 18.7941 9.3947 18.8745 9.31852C18.9548 9.24233 19 9.139 19 9.03125V8.21875C19 8.11101 18.9548 8.00768 18.8745 7.93149C18.7941 7.85531 18.6851 7.8125 18.5714 7.8125V7.8125ZM8.425 18.8574C8.44544 19.1668 8.58951 19.4572 8.82787 19.6695C9.06624 19.8818 9.38098 20 9.70804 20H16.292C16.619 20 16.9338 19.8818 17.1721 19.6695C17.4105 19.4572 17.5546 19.1668 17.575 18.8574L18.1429 10.25H7.85714L8.425 18.8574Z" fill="white"/>
</svg>
