<svg width="26" height="26" viewBox="0 0 26 26" fill="none" xmlns="http://www.w3.org/2000/svg">
<path d="M1 1H25V25H1V1Z" fill="#26619C" stroke="#26619C" stroke-width="2"/>
<path d="M21.7037 12.2358C20.1031 9.1129 16.9345 7 13.3064 7C9.67823 7 6.50874 9.11437 4.90909 12.2361C4.84157 12.3696 4.8064 12.5172 4.8064 12.6668C4.8064 12.8165 4.84157 12.964 4.90909 13.0976C6.50963 16.2204 9.67823 18.3333 13.3064 18.3333C16.9345 18.3333 20.104 16.2189 21.7037 13.0973C21.7712 12.9637 21.8063 12.8162 21.8063 12.6665C21.8063 12.5169 21.7712 12.3693 21.7037 12.2358ZM13.3064 16.9167C12.4658 16.9167 11.6441 16.6674 10.9452 16.2004C10.2463 15.7334 9.70156 15.0696 9.37989 14.2931C9.05822 13.5165 8.97405 12.6619 9.13804 11.8375C9.30203 11.0131 9.7068 10.2558 10.3012 9.66146C10.8955 9.06709 11.6528 8.66231 12.4772 8.49833C13.3017 8.33434 14.1562 8.4185 14.9328 8.74018C15.7094 9.06185 16.3731 9.60658 16.8401 10.3055C17.3071 11.0044 17.5564 11.8261 17.5564 12.6667C17.5566 13.2249 17.4469 13.7776 17.2334 14.2934C17.0199 14.8091 16.7069 15.2778 16.3122 15.6725C15.9175 16.0672 15.4489 16.3802 14.9331 16.5937C14.4173 16.8072 13.8646 16.9169 13.3064 16.9167ZM13.3064 9.83333C13.0535 9.83686 12.8022 9.87449 12.5594 9.94519C12.7595 10.2172 12.8556 10.552 12.8301 10.8887C12.8046 11.2255 12.6593 11.542 12.4205 11.7808C12.1817 12.0196 11.8652 12.1649 11.5284 12.1904C11.1917 12.2159 10.8569 12.1198 10.5849 11.9197C10.43 12.4903 10.458 13.0952 10.6648 13.6492C10.8717 14.2031 11.2471 14.6783 11.7382 15.0077C12.2292 15.3371 12.8113 15.5043 13.4023 15.4856C13.9933 15.4669 14.5636 15.2634 15.0329 14.9036C15.5022 14.5438 15.8468 14.046 16.0184 13.4801C16.1899 12.9142 16.1796 12.3087 15.989 11.7489C15.7984 11.1892 15.437 10.7033 14.9558 10.3597C14.4746 10.016 13.8977 9.83194 13.3064 9.83333Z" fill="#F4F6FC"/>
</svg>
