<svg width="22" height="22" viewBox="0 0 22 22" fill="none" xmlns="http://www.w3.org/2000/svg">
<path d="M8.59357 15.625H6.24982V0.78125C6.24982 0.57405 6.16751 0.375336 6.021 0.228823C5.87449 0.08231 5.67577 4.08504e-09 5.46857 4.08503e-09H3.90607C3.69887 4.08504e-09 3.50016 0.08231 3.35364 0.228823C3.20713 0.375336 3.12482 0.57405 3.12482 0.78125V15.625H0.781071C0.0881997 15.625 -0.261898 16.4668 0.229801 16.9585L4.13605 21.646C4.28255 21.7924 4.48119 21.8746 4.6883 21.8746C4.89541 21.8746 5.09405 21.7924 5.24054 21.646L9.14679 16.9585C9.63605 16.4678 9.28791 15.625 8.59357 15.625ZM20.3123 12.5H14.0623C13.8551 12.5 13.6564 12.5823 13.5099 12.7288C13.3634 12.8753 13.2811 13.074 13.2811 13.2812V14.8438C13.2811 15.051 13.3634 15.2497 13.5099 15.3962C13.6564 15.5427 13.8551 15.625 14.0623 15.625H16.7967L13.8055 19.0649C13.6406 19.2116 13.5085 19.3914 13.4182 19.5927C13.3278 19.7941 13.281 20.0122 13.2811 20.2329V21.0938C13.2811 21.301 13.3634 21.4997 13.5099 21.6462C13.6564 21.7927 13.8551 21.875 14.0623 21.875H20.3123C20.5195 21.875 20.7182 21.7927 20.8647 21.6462C21.0113 21.4997 21.0936 21.301 21.0936 21.0938V19.5312C21.0936 19.324 21.0113 19.1253 20.8647 18.9788C20.7182 18.8323 20.5195 18.75 20.3123 18.75H17.5779L20.5692 15.3101C20.7341 15.1634 20.8661 14.9836 20.9565 14.7823C21.0469 14.5809 21.0936 14.3628 21.0936 14.1421V13.2812C21.0936 13.074 21.0113 12.8753 20.8647 12.7288C20.7182 12.5823 20.5195 12.5 20.3123 12.5ZM21.8289 8.33105L18.9349 0.518555C18.8807 0.366779 18.7809 0.235477 18.6492 0.142642C18.5174 0.049807 18.3602 -1.6472e-05 18.199 4.08503e-09H16.1756C16.0144 -1.6472e-05 15.8572 0.049807 15.7255 0.142642C15.5938 0.235477 15.494 0.366779 15.4398 0.518555L12.5457 8.33105C12.5036 8.44892 12.4905 8.57517 12.5074 8.69918C12.5243 8.82319 12.5707 8.94133 12.6428 9.04365C12.7149 9.14597 12.8105 9.22947 12.9215 9.28714C13.0326 9.3448 13.1559 9.37493 13.2811 9.375H14.4935C14.6587 9.37505 14.8197 9.32271 14.9533 9.2255C15.087 9.12829 15.1863 8.99122 15.2371 8.83398L15.4529 8.20312H18.9197L19.1351 8.83398C19.186 8.99154 19.2856 9.12884 19.4197 9.22608C19.5537 9.32332 19.7151 9.37547 19.8807 9.375H21.0936C21.2187 9.37493 21.342 9.3448 21.4531 9.28714C21.5642 9.22947 21.6598 9.14597 21.7319 9.04365C21.8039 8.94133 21.8504 8.82319 21.8673 8.69918C21.8842 8.57517 21.871 8.44892 21.8289 8.33105V8.33105ZM16.387 5.46875L17.1873 3.125L17.9876 5.46875H16.387Z" fill="#AB3472"/>
</svg>
