<svg width="154" height="178" viewBox="0 0 154 178" fill="none" xmlns="http://www.w3.org/2000/svg">
<path d="M115.303 53.972H99.2645C98.1599 53.972 97.279 53.0716 97.1272 51.9775C96.1535 44.9591 90.1165 39.5412 82.8337 39.5412C75.5508 39.5412 69.5139 44.9591 68.5401 51.9775C68.3883 53.0716 67.5074 53.972 66.4029 53.972H50.3644C44.3891 53.972 39.5413 58.8199 39.5413 64.7951V144.165C39.5413 150.14 44.3891 154.988 50.3644 154.988H115.303C121.278 154.988 126.126 150.14 126.126 144.165V64.7951C126.126 58.8199 121.278 53.972 115.303 53.972ZM61.1875 135.145C58.1886 135.145 55.7759 132.733 55.7759 129.734C55.7759 126.735 58.1886 124.322 61.1875 124.322C64.1864 124.322 66.599 126.735 66.599 129.734C66.599 132.733 64.1864 135.145 61.1875 135.145ZM61.1875 113.499C58.1886 113.499 55.7759 111.086 55.7759 108.088C55.7759 105.089 58.1886 102.676 61.1875 102.676C64.1864 102.676 66.599 105.089 66.599 108.088C66.599 111.086 64.1864 113.499 61.1875 113.499ZM61.1875 91.8529C58.1886 91.8529 55.7759 89.4402 55.7759 86.4413C55.7759 83.4424 58.1886 81.0298 61.1875 81.0298C64.1864 81.0298 66.599 83.4424 66.599 86.4413C66.599 89.4402 64.1864 91.8529 61.1875 91.8529ZM82.8337 48.5605C85.8326 48.5605 88.2452 50.9731 88.2452 53.972C88.2452 56.9709 85.8326 59.3836 82.8337 59.3836C79.8348 59.3836 77.4221 56.9709 77.4221 53.972C77.4221 50.9731 79.8348 48.5605 82.8337 48.5605ZM111.695 131.538C111.695 132.53 110.884 133.341 109.891 133.341H77.4221C76.43 133.341 75.6183 132.53 75.6183 131.538V127.93C75.6183 126.938 76.43 126.126 77.4221 126.126H109.891C110.884 126.126 111.695 126.938 111.695 127.93V131.538ZM111.695 109.891C111.695 110.884 110.884 111.695 109.891 111.695H77.4221C76.43 111.695 75.6183 110.884 75.6183 109.891V106.284C75.6183 105.292 76.43 104.48 77.4221 104.48H109.891C110.884 104.48 111.695 105.292 111.695 106.284V109.891ZM111.695 88.2452C111.695 89.2373 110.884 90.049 109.891 90.049H77.4221C76.43 90.049 75.6183 89.2373 75.6183 88.2452V84.6375C75.6183 83.6454 76.43 82.8336 77.4221 82.8336H109.891C110.884 82.8336 111.695 83.6454 111.695 84.6375V88.2452Z" fill="#26619C"/>
</svg>
