<svg width="152" height="152" viewBox="0 0 152 152" fill="none" xmlns="http://www.w3.org/2000/svg">
<mask id="path-1-inside-1_406_2" fill="white">
<rect width="152" height="152" rx="1"/>
</mask>
<rect width="152" height="152" rx="1" fill="#F4F6FC" stroke="#26619C" stroke-width="4" mask="url(#path-1-inside-1_406_2)"/>
<path d="M76.088 75.9998C91.7077 75.9998 104.367 64.0921 104.367 49.3998C104.367 34.7075 91.7077 22.7998 76.088 22.7998C60.4682 22.7998 47.8089 34.7075 47.8089 49.3998C47.8089 64.0921 60.4682 75.9998 76.088 75.9998ZM95.8833 82.6498H92.4006C92.2642 82.6498 92.1293 82.6778 92.0038 82.7313C87.1484 84.8004 81.7581 85.9748 76.088 85.9748C70.4173 85.9748 65.048 84.8001 60.1715 82.7307C60.0464 82.6776 59.9121 82.6498 59.7762 82.6498H56.2926C39.8996 82.6498 26.5996 95.1601 26.5996 110.58V119.225C26.5996 124.732 31.3496 129.2 37.2043 129.2H114.972C120.826 129.2 125.576 124.732 125.576 119.225V110.58C125.576 95.1601 112.276 82.6498 95.8833 82.6498Z" fill="#26619C"/>
</svg>
