<svg width="175" height="200" viewBox="0 0 175 200" fill="none" xmlns="http://www.w3.org/2000/svg">
<path d="M94.4214 75.0438V45.0968H50.3816C47.4529 45.0968 45.0968 47.4529 45.0968 50.3815V152.554C45.0968 155.483 47.4529 157.839 50.3816 157.839H124.368C127.297 157.839 129.653 155.483 129.653 152.554V80.3286H99.7062C96.7995 80.3286 94.4214 77.9505 94.4214 75.0438ZM108.514 127.011C108.514 128.464 107.325 129.653 105.872 129.653H68.8783C67.425 129.653 66.2359 128.464 66.2359 127.011V125.249C66.2359 123.796 67.425 122.607 68.8783 122.607H105.872C107.325 122.607 108.514 123.796 108.514 125.249V127.011ZM108.514 112.918C108.514 114.371 107.325 115.56 105.872 115.56H68.8783C67.425 115.56 66.2359 114.371 66.2359 112.918V111.157C66.2359 109.703 67.425 108.514 68.8783 108.514H105.872C107.325 108.514 108.514 109.703 108.514 111.157V112.918ZM108.514 97.0638V98.8254C108.514 100.279 107.325 101.468 105.872 101.468H68.8783C67.425 101.468 66.2359 100.279 66.2359 98.8254V97.0638C66.2359 95.6104 67.425 94.4214 68.8783 94.4214H105.872C107.325 94.4214 108.514 95.6104 108.514 97.0638ZM129.653 71.939V73.2823H101.468V45.0968H102.811C104.22 45.0968 105.563 45.6473 106.554 46.6382L128.112 68.2177C129.103 69.2086 129.653 70.5518 129.653 71.939Z" fill="#26619C"/>
</svg>
