<svg width="147" height="158" viewBox="0 0 147 158" fill="none" xmlns="http://www.w3.org/2000/svg">
<path d="M73.5 79C96.6984 79 115.5 61.3176 115.5 39.5C115.5 17.6824 96.6984 0 73.5 0C50.3016 0 31.5 17.6824 31.5 39.5C31.5 61.3176 50.3016 79 73.5 79ZM102.9 88.875H97.6271C97.4907 88.875 97.3559 88.903 97.2304 88.9567C89.9952 92.0536 81.9572 93.8125 73.5 93.8125C65.0422 93.8125 57.036 92.0534 49.7689 88.956C49.6439 88.9028 49.5096 88.875 49.3737 88.875H44.1C19.7531 88.875 0 107.452 0 130.35V143.188C0 151.365 7.05469 158 15.75 158H131.25C139.945 158 147 151.365 147 143.188V130.35C147 107.452 127.247 88.875 102.9 88.875Z" fill="#AB3472"/>
</svg>
