<svg width="692" height="221" viewBox="0 0 692 221" fill="none" xmlns="http://www.w3.org/2000/svg">
<path d="M124.941 15.232C126.622 15.5153 127.6 17.2912 126.942 18.8637L49.6327 203.405C49.2207 204.388 48.2585 205.028 47.1921 205.028L23.8145 205.028L3.93415 205.028C2.05525 205.028 0.774941 203.125 1.48337 201.385L41.4064 103.314L80.0809 9.75713C80.5523 8.61682 81.7492 7.95367 82.9659 8.15871L124.941 15.232Z" fill="#F4F6FC"/>
<path d="M168.544 159.414C168.953 161.081 167.691 162.691 165.974 162.691L144.211 162.691L119.896 162.691C118.645 162.691 117.565 161.815 117.307 160.591L111.759 134.282C111.757 134.275 111.757 134.267 111.757 134.26C111.758 134.252 111.757 134.245 111.756 134.237L103.384 95.7383C103.272 95.225 103.316 94.6901 103.509 94.2017L130.715 25.5088C131.664 23.1125 135.13 23.3491 135.745 25.8521L168.544 159.414Z" fill="#F4F6FC"/>
<path d="M263.016 80.4123C263.859 80.4123 264.587 80.7188 265.2 81.3319C265.813 81.9449 266.119 82.6729 266.119 83.5158V157.77C266.119 158.613 265.813 159.341 265.2 159.954C264.587 160.567 263.859 160.873 263.016 160.873H244.51C242.671 160.873 241.138 160.069 239.912 158.46L214.854 126.505V157.77C214.854 158.613 214.548 159.341 213.934 159.954C213.321 160.567 212.593 160.873 211.751 160.873H190.371C189.528 160.873 188.8 160.567 188.187 159.954C187.574 159.341 187.267 158.613 187.267 157.77V83.5158C187.267 82.6729 187.574 81.9449 188.187 81.3319C188.8 80.7188 189.528 80.4123 190.371 80.4123H208.992C210.831 80.4123 212.325 81.1786 213.475 82.7112L238.533 117.309V83.5158C238.533 82.6729 238.839 81.9449 239.452 81.3319C240.065 80.7188 240.793 80.4123 241.636 80.4123H263.016ZM340.328 137.31H361.133C361.976 137.31 362.704 137.616 363.317 138.229C363.93 138.842 364.237 139.57 364.237 140.413V157.77C364.237 158.613 363.93 159.341 363.317 159.954C362.704 160.567 361.976 160.873 361.133 160.873H288.259C287.416 160.873 286.688 160.567 286.075 159.954C285.462 159.341 285.155 158.613 285.155 157.77V140.413C285.155 139.57 285.462 138.842 286.075 138.229C286.688 137.616 287.416 137.31 288.259 137.31H309.293V103.976H288.259C287.416 103.976 286.688 103.669 286.075 103.056C285.462 102.443 285.155 101.715 285.155 100.872V83.5158C285.155 82.6729 285.462 81.9449 286.075 81.3319C286.688 80.7188 287.416 80.4123 288.259 80.4123H361.133C361.976 80.4123 362.704 80.7188 363.317 81.3319C363.93 81.9449 364.237 82.6729 364.237 83.5158V100.872C364.237 101.715 363.93 102.443 363.317 103.056C362.704 103.669 361.976 103.976 361.133 103.976H340.328V137.31ZM437.412 83.5158C438.561 81.4468 440.209 80.4123 442.354 80.4123H463.389C464.232 80.4123 464.96 80.7188 465.573 81.3319C466.186 81.9449 466.493 82.6729 466.493 83.5158V157.77C466.493 158.613 466.186 159.341 465.573 159.954C464.96 160.567 464.232 160.873 463.389 160.873H442.584C441.741 160.873 441.013 160.567 440.4 159.954C439.787 159.341 439.481 158.613 439.481 157.77V122.137L431.09 138.689C430.86 139.226 430.323 139.839 429.48 140.528C428.637 141.218 427.565 141.563 426.262 141.563H418.446C417.143 141.563 416.07 141.218 415.227 140.528C414.384 139.839 413.848 139.226 413.618 138.689L405.227 122.137V157.77C405.227 158.613 404.921 159.341 404.308 159.954C403.695 160.567 402.967 160.873 402.124 160.873H381.319C380.476 160.873 379.748 160.567 379.135 159.954C378.522 159.341 378.215 158.613 378.215 157.77V83.5158C378.215 82.6729 378.522 81.9449 379.135 81.3319C379.748 80.7188 380.476 80.4123 381.319 80.4123H402.354C404.499 80.4123 406.147 81.4468 407.296 83.5158L422.354 111.102L437.412 83.5158ZM489.896 131.563C489.053 131.563 488.325 131.256 487.712 130.643C487.099 130.03 486.793 129.302 486.793 128.459V112.482C486.793 111.639 487.099 110.911 487.712 110.298C488.325 109.685 489.053 109.378 489.896 109.378H508.172V92.0217C508.172 91.1788 508.479 90.4508 509.092 89.8378C509.705 89.2247 510.433 88.9182 511.276 88.9182H528.747C529.59 88.9182 530.318 89.2247 530.931 89.8378C531.544 90.4508 531.851 91.1788 531.851 92.0217V109.378H550.127C550.97 109.378 551.698 109.685 552.311 110.298C552.924 110.911 553.231 111.639 553.231 112.482V128.459C553.231 129.302 552.924 130.03 552.311 130.643C551.698 131.256 550.97 131.563 550.127 131.563H531.851V149.494C531.851 150.337 531.544 151.065 530.931 151.678C530.318 152.291 529.59 152.597 528.747 152.597H511.276C510.433 152.597 509.705 152.291 509.092 151.678C508.479 151.065 508.172 150.337 508.172 149.494V131.563H489.896Z" fill="#F4F6FC"/>
<path d="M127.967 204.94C124.793 204.94 122.311 203.983 120.52 202.069C118.739 200.155 117.848 197.535 117.848 194.209C117.848 192.096 118.265 190.239 119.099 188.638C119.933 187.027 121.16 185.772 122.78 184.872C124.4 183.972 126.314 183.522 128.522 183.522C131.051 183.522 133.221 184.066 135.031 185.156L133.78 188.027C132.056 187.098 130.327 186.634 128.593 186.634C126.489 186.634 124.836 187.316 123.633 188.681C122.429 190.045 121.828 191.902 121.828 194.252C121.828 196.583 122.363 198.426 123.434 199.78C124.504 201.135 126.072 201.813 128.138 201.813C129.464 201.813 130.668 201.604 131.748 201.188V196.355H127.385L127.413 193.328H135.372V203.376C134.083 203.907 132.861 204.3 131.705 204.556C130.559 204.812 129.313 204.94 127.967 204.94ZM146.372 204.94C143.861 204.94 141.905 204.219 140.503 202.779C139.11 201.33 138.413 199.33 138.413 196.782C138.413 194.299 139.072 192.324 140.389 190.855C141.706 189.387 143.501 188.647 145.775 188.638C147.926 188.638 149.594 189.311 150.778 190.656C151.972 192.002 152.569 193.788 152.569 196.014C152.569 196.175 152.564 196.436 152.555 196.796C152.555 197.156 152.555 197.421 152.555 197.592H142.165C142.203 199.051 142.601 200.183 143.359 200.989C144.127 201.784 145.178 202.182 146.514 202.182C148.22 202.182 149.859 201.737 151.432 200.846L151.958 203.49C150.394 204.456 148.533 204.94 146.372 204.94ZM142.236 195.247H149.058C149.058 193.977 148.769 193.001 148.191 192.319C147.613 191.637 146.813 191.296 145.79 191.296C144.833 191.296 144.023 191.627 143.359 192.291C142.705 192.954 142.331 193.939 142.236 195.247ZM160.599 204.925C158.296 204.925 156.454 204.532 155.07 203.746L155.454 200.946C156.079 201.287 156.875 201.595 157.842 201.87C158.808 202.135 159.689 202.268 160.485 202.268C161.309 202.268 161.949 202.116 162.404 201.813C162.868 201.5 163.105 201.045 163.114 200.448C163.114 199.908 162.896 199.482 162.461 199.169C162.034 198.857 161.215 198.468 160.002 198.004C159.585 197.852 159.315 197.753 159.192 197.705C157.752 197.146 156.714 196.526 156.079 195.844C155.444 195.152 155.127 194.219 155.127 193.044C155.127 191.623 155.639 190.533 156.662 189.775C157.695 189.017 159.13 188.638 160.968 188.638C162.958 188.638 164.706 189.012 166.213 189.761L165.289 192.333C163.801 191.642 162.385 191.296 161.039 191.296C160.291 191.296 159.703 191.424 159.277 191.679C158.86 191.926 158.652 192.305 158.652 192.816C158.652 193.3 158.855 193.679 159.263 193.953C159.67 194.219 160.466 194.569 161.651 195.005C161.688 195.015 161.812 195.057 162.02 195.133C162.229 195.209 162.39 195.27 162.503 195.318C163.934 195.839 164.986 196.464 165.658 197.194C166.331 197.914 166.668 198.857 166.668 200.022C166.658 201.585 166.127 202.794 165.076 203.646C164.024 204.499 162.532 204.925 160.599 204.925ZM175.863 204.854C174.802 204.854 173.916 204.731 173.205 204.485C172.504 204.229 171.954 203.831 171.557 203.291C171.159 202.751 170.874 202.116 170.704 201.386C170.543 200.647 170.462 199.738 170.462 198.658V191.282H167.904L168.046 189.263L170.718 189.022L171.912 184.786L174.186 184.772V189.022H178.066V191.282H174.186V198.729C174.186 199.913 174.356 200.756 174.697 201.259C175.039 201.761 175.669 202.012 176.588 202.012C177.128 202.012 177.706 201.964 178.322 201.87L178.421 204.542C178.402 204.542 178.284 204.565 178.066 204.613C177.857 204.651 177.654 204.684 177.455 204.712C177.265 204.75 177.019 204.783 176.716 204.812C176.412 204.84 176.128 204.854 175.863 204.854ZM181.136 204.641V189.022H184.859V204.641H181.136ZM181.136 186.748V183.564H184.874V186.748H181.136ZM195.561 202.111C196.821 202.111 197.769 201.652 198.404 200.733C199.038 199.814 199.356 198.497 199.356 196.782C199.356 195.048 199.038 193.726 198.404 192.816C197.769 191.907 196.812 191.452 195.533 191.452C194.273 191.452 193.32 191.912 192.676 192.831C192.041 193.74 191.724 195.062 191.724 196.796C191.724 198.501 192.046 199.814 192.69 200.733C193.335 201.652 194.292 202.111 195.561 202.111ZM195.462 204.94C193.15 204.94 191.331 204.191 190.004 202.694C188.678 201.197 188.014 199.226 188.014 196.782C188.014 194.261 188.678 192.276 190.004 190.827C191.331 189.368 193.202 188.638 195.618 188.638C197.949 188.638 199.773 189.382 201.09 190.869C202.416 192.347 203.08 194.318 203.08 196.782C203.08 199.274 202.412 201.259 201.076 202.737C199.74 204.205 197.868 204.94 195.462 204.94ZM206.121 204.641V189.022H209.12L209.532 190.997C211.124 189.424 212.891 188.638 214.833 188.638C216.652 188.638 218.012 189.164 218.912 190.216C219.822 191.258 220.276 192.774 220.276 194.764V204.641H216.539V195.218C216.529 193.958 216.325 193.015 215.927 192.39C215.53 191.765 214.814 191.452 213.781 191.452C212.976 191.452 212.237 191.661 211.564 192.077C210.901 192.485 210.418 193.001 210.115 193.627C209.935 194.366 209.845 195.503 209.845 197.038V204.641H206.121ZM237.459 204.94C235.422 204.94 233.821 204.191 232.655 202.694C231.49 201.197 230.907 199.198 230.907 196.696C230.907 194.271 231.485 192.324 232.641 190.855C233.807 189.377 235.408 188.638 237.445 188.638C239.662 188.638 241.23 189.424 242.149 190.997C242.055 190.069 242.007 189.173 242.007 188.311V183.266L245.731 183.024V204.641H242.505L242.092 202.509C241.931 202.765 241.78 202.988 241.638 203.177C241.505 203.357 241.306 203.57 241.041 203.817C240.775 204.054 240.486 204.248 240.174 204.4C239.871 204.542 239.482 204.665 239.008 204.769C238.544 204.883 238.028 204.94 237.459 204.94ZM238.34 202.111C240.842 202.111 242.111 200.411 242.149 197.009C242.149 195.086 241.827 193.683 241.183 192.802C240.539 191.921 239.577 191.48 238.298 191.48C237.18 191.48 236.284 191.931 235.612 192.831C234.948 193.721 234.617 195.038 234.617 196.782C234.617 198.516 234.948 199.837 235.612 200.747C236.284 201.657 237.194 202.111 238.34 202.111ZM256.745 204.94C254.234 204.94 252.278 204.219 250.876 202.779C249.483 201.33 248.786 199.33 248.786 196.782C248.786 194.299 249.445 192.324 250.762 190.855C252.079 189.387 253.874 188.647 256.148 188.638C258.299 188.638 259.967 189.311 261.151 190.656C262.345 192.002 262.942 193.788 262.942 196.014C262.942 196.175 262.937 196.436 262.928 196.796C262.928 197.156 262.928 197.421 262.928 197.592H252.538C252.576 199.051 252.974 200.183 253.732 200.989C254.5 201.784 255.551 202.182 256.887 202.182C258.593 202.182 260.232 201.737 261.805 200.846L262.331 203.49C260.767 204.456 258.906 204.94 256.745 204.94ZM252.61 195.247H259.431C259.431 193.977 259.142 193.001 258.565 192.319C257.987 191.637 257.186 191.296 256.163 191.296C255.206 191.296 254.396 191.627 253.732 192.291C253.079 192.954 252.704 193.939 252.61 195.247ZM270.972 204.925C268.669 204.925 266.827 204.532 265.443 203.746L265.827 200.946C266.452 201.287 267.248 201.595 268.215 201.87C269.181 202.135 270.062 202.268 270.858 202.268C271.682 202.268 272.322 202.116 272.777 201.813C273.241 201.5 273.478 201.045 273.487 200.448C273.487 199.908 273.27 199.482 272.834 199.169C272.407 198.857 271.588 198.468 270.375 198.004C269.958 197.852 269.688 197.753 269.565 197.705C268.125 197.146 267.087 196.526 266.452 195.844C265.818 195.152 265.5 194.219 265.5 193.044C265.5 191.623 266.012 190.533 267.035 189.775C268.068 189.017 269.503 188.638 271.341 188.638C273.331 188.638 275.079 189.012 276.586 189.761L275.662 192.333C274.174 191.642 272.758 191.296 271.412 191.296C270.664 191.296 270.077 191.424 269.65 191.679C269.233 191.926 269.025 192.305 269.025 192.816C269.025 193.3 269.229 193.679 269.636 193.953C270.043 194.219 270.839 194.569 272.024 195.005C272.061 195.015 272.185 195.057 272.393 195.133C272.602 195.209 272.763 195.27 272.876 195.318C274.307 195.839 275.359 196.464 276.031 197.194C276.704 197.914 277.041 198.857 277.041 200.022C277.031 201.585 276.5 202.794 275.449 203.646C274.397 204.499 272.905 204.925 270.972 204.925ZM285.767 204.641L293.427 183.806H297.62L305.167 204.641H301.216L299.155 198.757H291.864L289.789 204.641H285.767ZM292.83 195.886H298.174C296.469 190.419 295.592 187.596 295.545 187.416L292.83 195.886ZM313.865 204.94C311.477 204.94 309.615 204.229 308.279 202.808C306.953 201.386 306.29 199.354 306.29 196.711C306.29 194.152 306.986 192.167 308.379 190.756C309.781 189.344 311.624 188.638 313.907 188.638C315.736 188.638 317.28 189.031 318.541 189.818L317.659 192.475C316.371 191.803 315.172 191.466 314.064 191.466C312.804 191.466 311.809 191.916 311.079 192.816C310.359 193.717 309.999 195.029 309.999 196.753C309.999 198.497 310.354 199.823 311.065 200.733C311.785 201.642 312.799 202.097 314.106 202.097C315.471 202.097 316.783 201.694 318.043 200.889L318.398 203.717C317.745 204.153 317.067 204.466 316.366 204.655C315.665 204.845 314.831 204.94 313.865 204.94ZM328.077 204.94C325.689 204.94 323.828 204.229 322.492 202.808C321.165 201.386 320.502 199.354 320.502 196.711C320.502 194.152 321.198 192.167 322.591 190.756C323.993 189.344 325.836 188.638 328.12 188.638C329.948 188.638 331.493 189.031 332.753 189.818L331.872 192.475C330.583 191.803 329.385 191.466 328.276 191.466C327.016 191.466 326.021 191.916 325.291 192.816C324.571 193.717 324.211 195.029 324.211 196.753C324.211 198.497 324.567 199.823 325.277 200.733C325.997 201.642 327.011 202.097 328.319 202.097C329.683 202.097 330.995 201.694 332.255 200.889L332.611 203.717C331.957 204.153 331.28 204.466 330.578 204.655C329.877 204.845 329.044 204.94 328.077 204.94ZM346.837 203.419C345.596 204.433 343.962 204.94 341.934 204.94C339.906 204.94 338.272 204.433 337.031 203.419C335.799 202.405 335.183 200.917 335.183 198.956V189.022H338.921V198.814C338.921 199.979 339.163 200.823 339.646 201.344C340.139 201.865 340.916 202.126 341.977 202.126C343.019 202.126 343.777 201.87 344.251 201.358C344.734 200.837 344.976 199.989 344.976 198.814V189.022H348.699V198.956C348.699 200.908 348.079 202.396 346.837 203.419ZM359.33 204.94C356.819 204.94 354.863 204.219 353.46 202.779C352.067 201.33 351.371 199.33 351.371 196.782C351.371 194.299 352.03 192.324 353.347 190.855C354.664 189.387 356.459 188.647 358.733 188.638C360.884 188.638 362.551 189.311 363.736 190.656C364.93 192.002 365.527 193.788 365.527 196.014C365.527 196.175 365.522 196.436 365.512 196.796C365.512 197.156 365.512 197.421 365.512 197.592H355.123C355.161 199.051 355.559 200.183 356.317 200.989C357.084 201.784 358.136 202.182 359.472 202.182C361.178 202.182 362.817 201.737 364.39 200.846L364.915 203.49C363.352 204.456 361.49 204.94 359.33 204.94ZM355.194 195.247H362.016C362.016 193.977 361.727 193.001 361.149 192.319C360.571 191.637 359.771 191.296 358.747 191.296C357.79 191.296 356.98 191.627 356.317 192.291C355.663 192.954 355.289 193.939 355.194 195.247ZM368.653 204.641V189.022H372.377V204.641H368.653ZM368.653 186.748V183.564H372.391V186.748H368.653ZM381.743 204.854C380.672 204.854 379.782 204.731 379.071 204.485C378.37 204.229 377.816 203.826 377.408 203.277C377.001 202.727 376.716 202.073 376.555 201.315C376.394 200.557 376.314 199.615 376.314 198.487V183.266L380.037 183.024V198.416C380.037 199.818 380.203 200.771 380.535 201.273C380.866 201.765 381.511 202.012 382.468 202.012C382.941 202.012 383.543 201.96 384.273 201.855L384.372 204.513C384.363 204.513 384.244 204.537 384.017 204.584C383.799 204.632 383.586 204.67 383.377 204.698C383.178 204.736 382.923 204.769 382.61 204.797C382.297 204.835 382.008 204.854 381.743 204.854ZM391.208 204.925C388.906 204.925 387.063 204.532 385.68 203.746L386.063 200.946C386.689 201.287 387.485 201.595 388.451 201.87C389.418 202.135 390.299 202.268 391.095 202.268C391.919 202.268 392.558 202.116 393.013 201.813C393.478 201.5 393.714 201.045 393.724 200.448C393.724 199.908 393.506 199.482 393.07 199.169C392.644 198.857 391.824 198.468 390.611 198.004C390.194 197.852 389.924 197.753 389.801 197.705C388.361 197.146 387.324 196.526 386.689 195.844C386.054 195.152 385.737 194.219 385.737 193.044C385.737 191.623 386.248 190.533 387.271 189.775C388.304 189.017 389.74 188.638 391.578 188.638C393.568 188.638 395.316 189.012 396.822 189.761L395.898 192.333C394.411 191.642 392.994 191.296 391.649 191.296C390.9 191.296 390.313 191.424 389.887 191.679C389.47 191.926 389.261 192.305 389.261 192.816C389.261 193.3 389.465 193.679 389.872 193.953C390.28 194.219 391.076 194.569 392.26 195.005C392.298 195.015 392.421 195.057 392.63 195.133C392.838 195.209 392.999 195.27 393.113 195.318C394.543 195.839 395.595 196.464 396.268 197.194C396.941 197.914 397.277 198.857 397.277 200.022C397.267 201.585 396.737 202.794 395.685 203.646C394.633 204.499 393.141 204.925 391.208 204.925ZM413.749 204.94C411.712 204.94 410.111 204.191 408.945 202.694C407.78 201.197 407.197 199.198 407.197 196.696C407.197 194.271 407.775 192.324 408.931 190.855C410.097 189.377 411.698 188.638 413.735 188.638C415.952 188.638 417.52 189.424 418.439 190.997C418.344 190.069 418.297 189.173 418.297 188.311V183.266L422.021 183.024V204.641H418.794L418.382 202.509C418.221 202.765 418.07 202.988 417.928 203.177C417.795 203.357 417.596 203.57 417.331 203.817C417.065 204.054 416.776 204.248 416.464 204.4C416.16 204.542 415.772 204.665 415.298 204.769C414.834 204.883 414.318 204.94 413.749 204.94ZM414.63 202.111C417.132 202.111 418.401 200.411 418.439 197.009C418.439 195.086 418.117 193.683 417.473 192.802C416.828 191.921 415.867 191.48 414.588 191.48C413.47 191.48 412.574 191.931 411.901 192.831C411.238 193.721 410.907 195.038 410.907 196.782C410.907 198.516 411.238 199.837 411.901 200.747C412.574 201.657 413.484 202.111 414.63 202.111ZM433.035 204.94C430.524 204.94 428.568 204.219 427.166 202.779C425.773 201.33 425.076 199.33 425.076 196.782C425.076 194.299 425.735 192.324 427.052 190.855C428.369 189.387 430.164 188.647 432.438 188.638C434.589 188.638 436.257 189.311 437.441 190.656C438.635 192.002 439.232 193.788 439.232 196.014C439.232 196.175 439.227 196.436 439.218 196.796C439.218 197.156 439.218 197.421 439.218 197.592H428.828C428.866 199.051 429.264 200.183 430.022 200.989C430.79 201.784 431.841 202.182 433.177 202.182C434.883 202.182 436.522 201.737 438.095 200.846L438.621 203.49C437.057 204.456 435.195 204.94 433.035 204.94ZM428.899 195.247H435.721C435.721 193.977 435.432 193.001 434.854 192.319C434.276 191.637 433.476 191.296 432.453 191.296C431.496 191.296 430.685 191.627 430.022 192.291C429.368 192.954 428.994 193.939 428.899 195.247ZM450.332 204.641V183.82H454.183V201.571H462.895L462.782 204.641H450.332ZM472.02 202.111C473.28 202.111 474.227 201.652 474.862 200.733C475.497 199.814 475.814 198.497 475.814 196.782C475.814 195.048 475.497 193.726 474.862 192.816C474.227 191.907 473.27 191.452 471.991 191.452C470.731 191.452 469.779 191.912 469.135 192.831C468.5 193.74 468.182 195.062 468.182 196.796C468.182 198.501 468.504 199.814 469.149 200.733C469.793 201.652 470.75 202.111 472.02 202.111ZM471.92 204.94C469.608 204.94 467.789 204.191 466.463 202.694C465.136 201.197 464.473 199.226 464.473 196.782C464.473 194.261 465.136 192.276 466.463 190.827C467.789 189.368 469.66 188.638 472.077 188.638C474.407 188.638 476.231 189.382 477.548 190.869C478.875 192.347 479.538 194.318 479.538 196.782C479.538 199.274 478.87 201.259 477.534 202.737C476.198 204.205 474.327 204.94 471.92 204.94ZM482.665 204.641V189.022H486.388V204.641H482.665ZM482.665 186.748V183.564H486.403V186.748H482.665ZM495.271 204.925C492.969 204.925 491.126 204.532 489.742 203.746L490.126 200.946C490.752 201.287 491.547 201.595 492.514 201.87C493.48 202.135 494.361 202.268 495.157 202.268C495.982 202.268 496.621 202.116 497.076 201.813C497.54 201.5 497.777 201.045 497.787 200.448C497.787 199.908 497.569 199.482 497.133 199.169C496.706 198.857 495.887 198.468 494.674 198.004C494.257 197.852 493.987 197.753 493.864 197.705C492.424 197.146 491.386 196.526 490.752 195.844C490.117 195.152 489.799 194.219 489.799 193.044C489.799 191.623 490.311 190.533 491.334 189.775C492.367 189.017 493.802 188.638 495.641 188.638C497.63 188.638 499.378 189.012 500.885 189.761L499.961 192.333C498.474 191.642 497.057 191.296 495.712 191.296C494.963 191.296 494.376 191.424 493.949 191.679C493.532 191.926 493.324 192.305 493.324 192.816C493.324 193.3 493.528 193.679 493.935 193.953C494.343 194.219 495.138 194.569 496.323 195.005C496.361 195.015 496.484 195.057 496.692 195.133C496.901 195.209 497.062 195.27 497.176 195.318C498.606 195.839 499.658 196.464 500.331 197.194C501.003 197.914 501.34 198.857 501.34 200.022C501.33 201.585 500.8 202.794 499.748 203.646C498.696 204.499 497.204 204.925 495.271 204.925ZM504.381 204.641V189.022H508.105V204.641H504.381ZM504.381 186.748V183.564H508.119V186.748H504.381ZM512.013 204.641V189.022H515.14L515.623 191.409C516.646 189.77 518.129 188.951 520.072 188.951C520.479 188.951 520.811 188.97 521.066 189.008L521.01 192.12C520.631 192.063 520.237 192.035 519.83 192.035C518.456 192.035 517.428 192.4 516.746 193.129C516.073 193.859 515.737 194.872 515.737 196.171V204.641H512.013ZM528.329 204.925C526.027 204.925 524.184 204.532 522.8 203.746L523.184 200.946C523.809 201.287 524.605 201.595 525.572 201.87C526.538 202.135 527.419 202.268 528.215 202.268C529.04 202.268 529.679 202.116 530.134 201.813C530.598 201.5 530.835 201.045 530.845 200.448C530.845 199.908 530.627 199.482 530.191 199.169C529.764 198.857 528.945 198.468 527.732 198.004C527.315 197.852 527.045 197.753 526.922 197.705C525.482 197.146 524.444 196.526 523.809 195.844C523.175 195.152 522.857 194.219 522.857 193.044C522.857 191.623 523.369 190.533 524.392 189.775C525.425 189.017 526.86 188.638 528.698 188.638C530.688 188.638 532.436 189.012 533.943 189.761L533.019 192.333C531.531 191.642 530.115 191.296 528.77 191.296C528.021 191.296 527.434 191.424 527.007 191.679C526.59 191.926 526.382 192.305 526.382 192.816C526.382 193.3 526.586 193.679 526.993 193.953C527.4 194.219 528.196 194.569 529.381 195.005C529.419 195.015 529.542 195.057 529.75 195.133C529.959 195.209 530.12 195.27 530.233 195.318C531.664 195.839 532.716 196.464 533.389 197.194C534.061 197.914 534.398 198.857 534.398 200.022C534.388 201.585 533.858 202.794 532.806 203.646C531.754 204.499 530.262 204.925 528.329 204.925Z" fill="#F4F6FC"/>
</svg>
