<svg width="22" height="22" viewBox="0 0 22 22" fill="none" xmlns="http://www.w3.org/2000/svg">
<path d="M8.59357 15.625H6.24982V0.78125C6.24982 0.57405 6.16751 0.375336 6.021 0.228823C5.87449 0.08231 5.67577 0 5.46857 0H3.90607C3.69887 0 3.50016 0.08231 3.35364 0.228823C3.20713 0.375336 3.12482 0.57405 3.12482 0.78125V15.625H0.781071C0.0881997 15.625 -0.261898 16.4668 0.229801 16.9585L4.13605 21.646C4.28255 21.7924 4.48119 21.8746 4.6883 21.8746C4.89541 21.8746 5.09405 21.7924 5.24054 21.646L9.14679 16.9585C9.63605 16.4678 9.28791 15.625 8.59357 15.625ZM14.0623 9.375H20.3123C20.5195 9.375 20.7182 9.29269 20.8647 9.14618C21.0113 8.99966 21.0936 8.80095 21.0936 8.59375V7.03125C21.0936 6.82405 21.0113 6.62534 20.8647 6.47882C20.7182 6.33231 20.5195 6.25 20.3123 6.25H17.5779L20.5692 2.81006C20.7341 2.66345 20.8661 2.48356 20.9565 2.28225C21.0469 2.08094 21.0936 1.86276 21.0936 1.64209V0.78125C21.0936 0.57405 21.0113 0.375336 20.8647 0.228823C20.7182 0.08231 20.5195 0 20.3123 0H14.0623C13.8551 0 13.6564 0.08231 13.5099 0.228823C13.3634 0.375336 13.2811 0.57405 13.2811 0.78125V2.34375C13.2811 2.55095 13.3634 2.74966 13.5099 2.89618C13.6564 3.04269 13.8551 3.125 14.0623 3.125H16.7967L13.8055 6.56494C13.6406 6.71155 13.5085 6.89144 13.4182 7.09275C13.3278 7.29406 13.281 7.51224 13.2811 7.73291V8.59375C13.2811 8.80095 13.3634 8.99966 13.5099 9.14618C13.6564 9.29269 13.8551 9.375 14.0623 9.375ZM21.8289 20.8311L18.9349 13.0186C18.8807 12.8668 18.7809 12.7355 18.6492 12.6426C18.5174 12.5498 18.3602 12.5 18.199 12.5H16.1756C16.0144 12.5 15.8572 12.5498 15.7255 12.6426C15.5938 12.7355 15.494 12.8668 15.4398 13.0186L12.5457 20.8311C12.5036 20.9489 12.4905 21.0752 12.5074 21.1992C12.5243 21.3232 12.5707 21.4413 12.6428 21.5437C12.7149 21.646 12.8105 21.7295 12.9215 21.7871C13.0326 21.8448 13.1559 21.8749 13.2811 21.875H14.4935C14.6587 21.8751 14.8197 21.8227 14.9533 21.7255C15.087 21.6283 15.1863 21.4912 15.2371 21.334L15.4529 20.7031H18.9197L19.1351 21.334C19.186 21.4915 19.2856 21.6288 19.4197 21.7261C19.5537 21.8233 19.7151 21.8755 19.8807 21.875H21.0936C21.2187 21.8749 21.342 21.8448 21.4531 21.7871C21.5642 21.7295 21.6598 21.646 21.7319 21.5437C21.8039 21.4413 21.8504 21.3232 21.8673 21.1992C21.8842 21.0752 21.871 20.9489 21.8289 20.8311V20.8311ZM16.387 17.9688L17.1873 15.625L17.9876 17.9688H16.387Z" fill="#AB3472"/>
</svg>
